<?xml version="1.0" encoding="UTF-8"?>
<svg xmlns="http://www.w3.org/2000/svg" xmlns:xlink="http://www.w3.org/1999/xlink" viewBox="0 0 55.27 52.01">
  <defs>
    <style>
      .cls-1 {
        fill: url(#radial-gradient-3);
      }

      .cls-1, .cls-2, .cls-3, .cls-4, .cls-5 {
        mix-blend-mode: overlay;
      }

      .cls-2 {
        fill: url(#radial-gradient-5);
      }

      .cls-3 {
        fill: url(#radial-gradient-6);
      }

      .cls-4 {
        fill: url(#radial-gradient-4);
      }

      .cls-6 {
        fill: url(#radial-gradient-2);
      }

      .cls-7 {
        fill: #bd4f7d;
      }

      .cls-8 {
        fill: url(#radial-gradient);
      }

      .cls-9 {
        fill: #e8dfda;
      }

      .cls-10 {
        isolation: isolate;
      }

      .cls-11 {
        fill: #a6807d;
      }

      .cls-5 {
        opacity: .4;
      }
    </style>
    <radialGradient id="radial-gradient" cx="13.54" cy="42.73" fx="13.54" fy="42.73" r="38.96" gradientUnits="userSpaceOnUse">
      <stop offset=".09" stop-color="#fcd5cd"/>
      <stop offset=".54" stop-color="#f1cbc1"/>
      <stop offset="1" stop-color="#e3bdb1"/>
    </radialGradient>
    <radialGradient id="radial-gradient-2" cx="33.17" cy="21.16" fx="33.17" fy="21.16" r=".61" gradientUnits="userSpaceOnUse">
      <stop offset="0" stop-color="#ffebf8"/>
      <stop offset=".7" stop-color="#ffebf8" stop-opacity="0"/>
    </radialGradient>
    <radialGradient id="radial-gradient-3" cx="28.64" cy="26.05" fx="28.64" fy="26.05" r="32.21" xlink:href="#radial-gradient-2"/>
    <radialGradient id="radial-gradient-4" cx="51.23" cy="33.28" fx="51.23" fy="33.28" r="85.22" xlink:href="#radial-gradient-2"/>
    <radialGradient id="radial-gradient-5" cx="24.74" cy="44.46" fx="24.74" fy="44.46" r="10.07" xlink:href="#radial-gradient-2"/>
    <radialGradient id="radial-gradient-6" cx="24.74" cy="44.46" fx="24.74" fy="44.46" r="10.07" xlink:href="#radial-gradient-2"/>
  </defs>
  <g class="cls-10">
    <g id="Layer_2" data-name="Layer 2">
      <g id="Layer_1-2" data-name="Layer 1">
        <g>
          <g>
            <path class="cls-8" d="M23.55,51.21c-1.02,0-2.08-.05-3.15-.15-1.2-.12-2.36-.31-3.46-.54-1.29-.27-2.55-.64-3.86-1.12-1.42-.53-2.76-1.16-4.01-1.89-3.83-2.23-5.65-4.63-5.73-4.73-.18-.24-.21-.57-.07-.84.12-.23.33-.38.58-.42-2.24-2.49-2.81-5.92-2.83-6.1-.05-.3.08-.6.33-.78.03-.02.07-.04.11-.06-.2-.62-.4-1.4-.52-2.34-.25-1.88-.17-3.9.25-6,.74-3.76,2.45-5.59,3.76-6.47.07-.06.19-.12.29-.19l.09-.05c.91-.51,1.58-.62,1.65-.62.04,0,.07,0,.11,0,.31,0,.6.18.73.47l.26.57c.61,1.2,2.3,4.16,4.42,5.22,1.01.5,1.93.89,2.74,1.14,1.01.32,1.91.49,2.68.49.3,0,.55-.03.76-.06l-.24-.26c-.23-.25-.27-.62-.1-.92.14-.26.41-.41.7-.41.05,0,.09,0,.14.01.01,0,.1.02.26.03.66.08,2.36.25,4.32.25.94,0,1.81-.04,2.59-.12,5.49-.59,7.26-2.13,7.78-2.83-.17-.05-.33-.11-.47-.16-.81-.29-1.6-.64-1.6-.64-.33-.15-.53-.5-.47-.86.06-.36.36-.63.72-.67.32-.03.63-.05.93-.11,7.22-1.09,9.87-8.44,9.9-8.52l.81-2.17,2.94-7.99c.08-.22.26-.4.48-.48.09-.03.18-.05.27-.05.14,0,.28.04.41.11.22.13,5.33,3.27,6.24,11.85.2,1.01.27,6-.1,10.2-.02.27-.05.55-.08.84-.14,1.34-.33,2.5-.55,3.42-.58,2.3.25,3.62.28,3.67.14.21.17.48.08.71-.09.24-.28.42-.51.49-.05.02-.31.09-.65.09s-.67-.07-.98-.24c-.17.5-.38,1.11-.63,1.81,0,0-.49,1.33-.73,2-.35.92-.67,1.86-.98,2.9-.44,1.51-.64,2.5-.64,2.51-.05.26-.22.47-.47.58-.1.04-.21.07-.32.07-.15,0-.29-.04-.42-.12-.04-.03-.78-.49-1.23-1.47-.92,1-1.95,1.99-3.12,3.01-.57.49-1.15.97-1.76,1.47-.49.39-.96.76-1.46,1.15-.23.17-.43.35-.62.52-1.9,1.74-2.35,3.68-2.36,3.7-.07.3-.3.54-.6.61-.06.01-.12.02-.18.02-.24,0-.47-.11-.62-.3-.08-.1-.65-.86-.62-1.82-1.41.77-3.54,1.66-6.39,2.19-.57.1-1.18.2-1.81.27-1.05.12-2.15.18-3.27.18Z"/>
            <path class="cls-7" d="M47.66,1.6s4.99,2.98,5.86,11.29c.17.65.28,5.68-.11,10-.02.29-.05.58-.08.87-.13,1.22-.31,2.36-.53,3.27-.68,2.71.39,4.3.39,4.3,0,0-.18.05-.41.05-.44,0-1.09-.19-1.22-1.25,0,0-.42,1.3-1.15,3.35-.22.6-.47,1.28-.73,2-.42,1.1-.74,2.1-.99,2.94-.46,1.57-.66,2.58-.66,2.58,0,0-1.23-.76-1.22-2.5-1.2,1.45-2.55,2.79-4.08,4.12-.56.48-1.14.96-1.74,1.45-.48.38-.95.75-1.45,1.14-.24.18-.46.37-.67.56-2.14,1.96-2.6,4.12-2.6,4.12,0,0-.62-.78-.4-1.61.2-.78.68-1.61.74-1.71-.18.16-2.85,2.43-8.12,3.4-.55.1-1.14.19-1.76.26-.98.11-2.04.18-3.18.18-.97,0-1.99-.05-3.07-.15-1.18-.12-2.31-.3-3.36-.53-1.37-.29-2.61-.67-3.75-1.09-1.48-.55-2.77-1.18-3.88-1.83-3.73-2.17-5.49-4.52-5.49-4.52l2.07.04c-.06-.04-.12-.07-.18-.13-3.32-2.15-4.07-6.92-4.07-6.92l1.08.6s-.83-1.3-1.16-3.76c-.2-1.49-.22-3.42.24-5.74.68-3.46,2.21-5.15,3.42-5.96.12-.09.25-.16.36-.23.77-.43,1.34-.51,1.34-.51,0,0,.1.22.27.58.66,1.29,2.42,4.41,4.79,5.59,1.08.54,2.03.93,2.86,1.19,1.22.39,2.18.52,2.92.52,1.4,0,2-.47,2.1-.55.01,0,.01-.01.01-.01l-.99-1.1s.11.02.32.04c.71.08,2.44.26,4.4.26.87,0,1.79-.03,2.67-.13,5.63-.6,7.67-2.19,8.4-3.23.4-.57.42-.97.42-.97-.32-.02-.82-.16-1.32-.34-.78-.28-1.55-.62-1.55-.62.35-.03.68-.06,1.01-.12,7.78-1.18,10.51-9.04,10.51-9.04l.8-2.16,2.62-7.12.32-.87M47.66,0c-.18,0-.36.03-.53.09-.45.16-.8.51-.97.96l-.32.87-2.62,7.12-.8,2.16c-.11.31-2.55,7-9.25,8.01-.3.05-.57.08-.91.11-.73.06-1.32.61-1.44,1.33-.12.72.26,1.43.93,1.73.02,0,.38.17.86.36-.97.62-2.83,1.37-6.33,1.75-.75.08-1.59.12-2.5.12-1.91,0-3.58-.17-4.21-.25-.14-.01-.21-.02-.23-.03-.09-.01-.18-.02-.26-.02-.58,0-1.12.31-1.41.83-.14.25-.2.53-.2.81-.58-.05-1.24-.19-1.96-.42-.78-.24-1.66-.61-2.63-1.1-1.34-.67-2.83-2.44-4.07-4.87-.16-.33-.25-.53-.25-.54-.26-.58-.84-.94-1.46-.94-.07,0-.15,0-.22.02-.14.02-.92.15-1.9.7-.03.01-.05.03-.08.05l-.08.05c-.11.07-.23.14-.35.22-1.43.97-3.28,2.96-4.07,6.96-.43,2.19-.52,4.29-.26,6.26.1.75.24,1.41.4,1.97-.26.34-.38.78-.31,1.23.03.17.53,3.25,2.47,5.82-.05.07-.09.14-.13.21-.28.54-.22,1.2.14,1.69.08.11,2,2.64,5.97,4.94,1.28.75,2.67,1.41,4.13,1.95,1.35.5,2.65.87,3.98,1.16,1.11.24,2.3.43,3.53.56,1.11.1,2.19.16,3.23.16,1.15,0,2.28-.06,3.36-.19.61-.07,1.24-.16,1.86-.28,2.36-.43,4.23-1.11,5.65-1.77.21.61.53,1.03.6,1.11.31.39.77.6,1.25.6.12,0,.24-.01.37-.04.6-.14,1.07-.62,1.2-1.22,0,0,.42-1.72,2.12-3.27.21-.19.38-.34.55-.46.53-.41,1-.78,1.48-1.17.63-.51,1.22-1,1.79-1.49.9-.79,1.73-1.56,2.48-2.33.43.52.85.8.94.85.26.16.55.24.84.24.22,0,.43-.04.64-.13.48-.21.83-.64.93-1.16,0,0,.2-.97.63-2.44.3-1.01.61-1.94.95-2.82.24-.65.45-1.25.65-1.79l.09-.23c.14-.39.27-.75.38-1.08.16.02.32.04.48.04.43,0,.76-.09.88-.12.48-.15.87-.52,1.04-1,.17-.48.1-1.01-.18-1.43,0-.01-.65-1.1-.17-3.02.23-.96.43-2.16.57-3.49.03-.32.06-.62.09-.93.34-3.77.34-8.95.1-10.34C54.14,3.7,48.71.36,48.48.23c-.25-.15-.53-.23-.82-.23h0Z"/>
          </g>
          <path class="cls-11" d="M53.41,22.89c-.03.3-.06.58-.08.87-.4-.07-.85-.09-1.29.08-1.11.42-1.05,1.36-2.26.32-1.21-1.03-2.35-2.56-2.71-2.97-.36-.41-1.52-.26-2.28.09-.76.36-2.45,2.04-3.47.85-1.02-1.2-1.69-1.75-1.1-2.09.58-.35,2.11-.02,3.04-.11s1.53-.88,2.17-.91c.64-.03,1.36-.45.87-1.04s-4.12-.12-4.2-.08l1.22-.82s3.06-.78,3.78.33c.72,1.1.68,2.25,1.24,3.16.55.91,1.85,2.02,2.62,2.42.51.26,1.62.02,2.45-.11Z"/>
          <path class="cls-11" d="M40.42,24.46c-.71-.75-1.03-.78-1.33-.7-.3.09-.62,1.37-.55,1.63.06.27.17.75.66,1.48.5.74.94,1.51,1.06,2.34.12.83.36.92.33,1.69-.03.76-1.42.7-1.57-.27-.15-.96.22-1.43-.6-2.66s-2.99-1.95-2.99-1.95l.19,2.07c.11.13,1.34.93,1.72,1.72.39.78.53,1.28,1.3,1.99.77.71,1.71.8,2.07.88.36.08,1-.6.94-2.06s-.21-1.58-.02-2.71-.5-2.71-1.22-3.46Z"/>
          <path class="cls-11" d="M40.98,44.07c-.47.37-.95.75-1.45,1.13-.24.19-.46.37-.66.57-.01-.54-.12-1.05-.4-1.37-.78-.84-2.53-1.61-2.87-3.13-.35-1.53.23-3.13.02-4.55-.22-1.42-1.04-1.72-1.89-3.61-.85-1.89.17-5.7.17-5.7l.91-1.58s.5,1.97.55,3.79c.06,1.81-1.14,2.19-.62,3.69.52,1.5.77,1.72,1.91,2.63,1.14.92.73,2.78.78,3.63.05.84.9,2.23,1.41,2.88.4.52,1.39,1.22,2.14,1.61Z"/>
          <path class="cls-9" d="M44.71,9.59c.33,3.62-.69,7.66-2.4,11.78-3.11,7.5-4.13,6.68-4.13,6.68,0,0-1.02-1.58-4.37.96-3.34,2.53-7.25,3.63-7.51,3.48-.24-.16.7-1.41.7-1.41,0,0-2.71.48-7.27.67-4.36.17-6.73-1.29-6.92-1.36.07.1.1.41.17.57.08.17-3.61-.96-5.49-7.4-.57-1.94-.4-3.88-.4-3.88,0,0,2.03,4.66,5.06,6.17,5.71,2.86,7.71,1.32,7.88,1.16,0,0,0,0,0,0l-.99-1.1s.11.02.33.04c1.01.12,4.19.43,7.06.13,8.67-.92,8.82-4.19,8.82-4.19-.82-.04-2.87-.96-2.87-.96,8.56-.62,11.52-9.16,11.52-9.16l.8-2.17Z"/>
          <path class="cls-11" d="M24.38,29.11s-1.73,2-2.25,3.57-.14,2.67-.43,3.75-.9,1.22-1.23,2.34-.23,2.56-.19,3.03.44-2.03.98-2.9,1.17-.42,1.71-2.23.14-2.28.48-3.72,1.24-2.26,1.22-2.89.76-1.52-.28-.95Z"/>
          <path class="cls-11" d="M17.42,34.57c-.87,2.3-.81,3.56-1.2,4.36-.4.79-1,.59-1.38.65-.37.06-.82,2.22-.74,3.17s-.62.56-.87.32c-.26-.24.13,1.59,2.12,4.4.65.92,1.26,1.67,1.77,2.25-1.37-.29-2.61-.67-3.76-1.09-.48-.86-.9-1.72-1.2-2.53-1.5-4.14-.33-7.91,0-7.56.33.35.4,1.19.4,1.19,0,0,.12-.98.53-1.57.41-.6.73.08,1.3-.44.57-.53.01-1.12,2.09-3.71,2.07-2.6,2.4-2.24,2.69-2.27s-.89.52-1.76,2.83Z"/>
          <path class="cls-11" d="M20.04,27.01c-.11.15-1.12,1.38-3.93,1.54-3,.16-4.73-.88-4.76-.72-.02.16.19,1.19.19,1.19l-2.16-1.44s.9,1.96,1.14,2.63c.24.69-1.23-.22-1.99-.4-.76-.18-.31,2.65-.43,3.56-.14.91-1.93-.64-2.16-.15-.23.49.12,1.98.64,3.37.52,1.4-.27,1.08-.97.9-.7-.19-.57,1.53.4,3.46.39.79.29,1.2-.11,1.25-3.32-2.15-4.07-6.92-4.07-6.92l1.08.6s-2.14-3.36-.92-9.5,5.12-6.7,5.12-6.7c0,0,2.03,4.66,5.06,6.17,5.71,2.86,7.71,1.32,7.88,1.16Z"/>
          <path class="cls-11" d="M28.51,45.1c-.68,1.47-.76,2.65-.61,3.14.13.36.5,1.08.58,1.74-.55.1-1.14.19-1.76.25-.13-.81-.19-1.79-.13-2.57.13-1.57.29-1.51-.54-3.74-.83-2.23-1.61-2.97-1.3-4.68.31-1.71,1.28-3.01,1.28-3.01-.11-1.2.08-2.12.17-2.83.09-.71.56.07.95,1.36.39,1.3.07.34.88,1.95.82,1.6,1.54,3.1,1.6,4.54.05,1.44-.44,2.38-1.13,3.85Z"/>
          <path class="cls-9" d="M26.73,37.2s-.52,1.38-.75,2.28,0,1.44.35,2.07.7,1.27.84,2.12.95-.59,1.16-2.07.09-2.03-.6-3.12-.89-1.79-1-1.29Z"/>
          <path class="cls-11" d="M50.4,33.48c-.22.61-.47,1.28-.73,2.01-.41,1.09-.73,2.1-.99,2.94-.11-.18-.21-.38-.31-.59-1.4-2.84-1.05-2.8-1.62-3.37-.58-.56-1.43-.9-1.97-1.66-.54-.78-1.25-1.79-1.33-2.66s-.34-2.4-.68-3.17c-.33-.76-1.93-3.19-1.7-3.15.24.03,1.4,1.18,2.32,2.86.92,1.67,1.27,2.05,2.53,3.58,1.25,1.53,1.64,1.57,3.12,2.03.49.15.96.62,1.37,1.19Z"/>
          <path class="cls-5" d="M53.41,22.89c-.02.29-.05.58-.08.87-.13,1.22-.31,2.36-.53,3.27-.68,2.71.39,4.3.39,4.3,0,0-1.44.44-1.63-1.2,0,0-.42,1.3-1.15,3.35-.22.6-.47,1.28-.73,2-.42,1.1-.74,2.1-.99,2.94-.46,1.57-.66,2.58-.66,2.58,0,0-1.23-.76-1.22-2.5-1.63,1.98-3.55,3.74-5.82,5.57-.48.38-.95.75-1.45,1.14-.24.18-.46.37-.67.56-2.14,1.96-2.6,4.12-2.6,4.12,0,0-.62-.78-.4-1.61.2-.78.68-1.61.74-1.71-.18.16-2.85,2.43-8.12,3.4-.55.1-1.14.19-1.76.26-1.82.21-3.9.25-6.25.03-1.18-.12-2.31-.3-3.36-.53-1.37-.29-2.61-.67-3.75-1.09-6.41-2.39-9.37-6.35-9.37-6.35l2.07.04c-.06-.04-.12-.07-.18-.13-3.32-2.15-4.07-6.92-4.07-6.92l1.08.6s-.83-1.3-1.16-3.76c1.38,4.68,4.33,7.62,6.26,9.33,2.6,2.3,1.11.81.3,2.05-.81,1.23,9.87,6.81,17.87,5.53,8-1.28,15.83-9.19,16.81-10.09.98-.89,2.05-.17,3.19-1.44,1.15-1.28,5.96-13.41,3.71-15.49-2.26-2.09-3.32,7.57-5.03,7.78-1.7.22-.55-2-.89-2.89-.34-.89-3.96,11.7-14.31,14.34-10.35,2.65-21.26.64-24.28-9.06-1.76-5.63-.76-9.63.39-11.99.77-.43,1.34-.51,1.34-.51,0,0,2.03,4.66,5.06,6.17,5.71,2.86,7.7,1.31,7.88,1.16.01,0,.01-.01.01-.01l-.99-1.1s.11.02.32.04c1.02.12,4.19.43,7.07.13,8.66-.92,8.82-4.2,8.82-4.2-.82-.04-2.87-.96-2.87-.96,8.55-.62,11.52-9.16,11.52-9.16l.8-2.16,2.94-7.99s4.99,2.98,5.86,11.29c.17.65.28,5.68-.11,10Z"/>
          <path class="cls-6" d="M33.95,21.53c-.78-.28-1.55-.62-1.55-.62.35-.03.68-.06,1.01-.12.18.24.36.49.54.74Z"/>
          <path class="cls-1" d="M42.73,42.62c-.56.48-1.14.96-1.74,1.45-.48.38-.95.75-1.45,1.14-.24.18-.46.37-.67.56-2.14,1.96-2.6,4.12-2.6,4.12,0,0-.62-.78-.4-1.61.2-.78.68-1.61.74-1.71-.18.16-2.85,2.43-8.12,3.4-.55.1-1.14.19-1.76.26-1.82.21-3.9.25-6.25.03-1.18-.12-2.31-.3-3.36-.53-1.37-.29-2.61-.67-3.75-1.09-1.48-.55-2.77-1.18-3.88-1.83-.28-7.32,2.53-14.4,5.53-19.77,3.54,1.13,4.87.09,5.02-.03.01,0,.01-.01.01-.01l-.99-1.1s.11.02.32.04c1.02.12,4.19.43,7.07.13,5.63-.6,7.67-2.19,8.4-3.23,4,6.06,6.42,13.33,7.88,19.78Z"/>
          <path class="cls-4" d="M53.41,22.89c-.02.29-.05.58-.08.87-.13,1.22-.31,2.36-.53,3.27-.68,2.71.39,4.3.39,4.3,0,0-1.44.44-1.63-1.2,0,0-.42,1.3-1.15,3.35-.22.6-.47,1.28-.73,2-.42,1.1-.74,2.1-.99,2.94-.46,1.57-.66,2.58-.66,2.58,0,0-1.23-.76-1.22-2.5-1.2,1.45-2.55,2.79-4.08,4.12-.56.48-1.14.96-1.74,1.45-.48.38-.95.75-1.45,1.14-.24.18-.46.37-.67.56-2.14,1.96-2.6,4.12-2.6,4.12,0,0-.62-.78-.4-1.61.2-.78.68-1.61.74-1.71-.18.16-2.85,2.43-8.12,3.4-.55.1-1.14.19-1.76.26-1.82.21-3.9.25-6.25.03-1.18-.12-2.31-.3-3.36-.53-1.37-.29-2.61-.67-3.75-1.09-1.48-.55-2.77-1.18-3.88-1.83-3.73-2.17-5.49-4.52-5.49-4.52l2.07.04c-.06-.04-.12-.07-.18-.13-3.32-2.15-4.07-6.92-4.07-6.92l1.08.6s-.83-1.3-1.16-3.76c-.2-1.49-.22-3.42.24-5.74.68-3.46,2.21-5.15,3.42-5.96.12-.09.25-.16.36-.23.77-.43,1.34-.51,1.34-.51,0,0,.1.22.27.58-1.69,1.09-3.56,2.84-4.45,5.53-1.82,5.52,1.31,11.01,1.31,11.43s-1.18-.26-1.18-.26c0,0,1.08,2.49,2.36,3.86,1.27,1.38,1.85,1.79,1.85,1.79l-1.18.54s5.87,6.29,16.53,6.42c10.66.13,14.97-5.01,15.19-5.01s.02,1.14.01,1.23c.27-.24,4.56-4.14,6.76-6.24,2.26-2.17,3.32-3.16,3.32-3.16l-.13,1.69s2.17-5.62,2.74-8.17c.58-2.55.8-3,.8-3l.58,1.82s1.94-6.67.7-14.78c-.83-5.39-3.52-9.4-5.24-11.48l.32-.87s4.99,2.98,5.86,11.29c.17.65.28,5.68-.11,10Z"/>
          <ellipse class="cls-2" cx="24.97" cy="47.96" rx="3" ry="1.36"/>
          <ellipse class="cls-3" cx="28.08" cy="45.56" rx="1.48" ry=".81"/>
        </g>
      </g>
    </g>
  </g>
</svg>