<?xml version="1.0" encoding="UTF-8"?>
<svg id="Layer_2" data-name="Layer 2" xmlns="http://www.w3.org/2000/svg" xmlns:xlink="http://www.w3.org/1999/xlink" viewBox="0 0 12.29 10.8">
  <defs>
    <style>
      .cls-1 {
        fill: none;
      }

      .cls-2 {
        fill: #cca39b;
      }

      .cls-3 {
        fill: #ebc7c1;
      }

      .cls-4 {
        fill: #ffebf8;
      }

      .cls-5 {
        clip-path: url(#clippath);
      }
    </style>
    <clipPath id="clippath">
      <path class="cls-1" d="M11.52,3.7c.11-3.26-4.27-4.05-5.25-1.13-.04.13-.21.13-.26,0C5.04-.34.66.44.77,3.7c.11,3.44,5.36,6.32,5.38,6.33h0s0,0,0,0h0s0,0,0,0c.02-.01,5.27-2.9,5.38-6.33Z"/>
    </clipPath>
  </defs>
  <g id="Layer_1-2" data-name="Layer 1">
    <g>
      <g>
        <path class="cls-3" d="M6.15,10.42c-.06,0-.12-.01-.17-.04h0c-.24-.13-5.47-3.07-5.59-6.66-.03-.94.27-1.76.87-2.38.59-.61,1.42-.96,2.29-.96,1.13,0,2.08.57,2.6,1.53.52-.96,1.48-1.53,2.6-1.53.87,0,1.7.35,2.29.96.6.62.9,1.44.87,2.38-.12,3.59-5.35,6.53-5.57,6.65-.06.03-.12.05-.19.05Z"/>
        <path class="cls-4" d="M8.75.77c1.41,0,2.84,1.06,2.77,2.94-.11,3.44-5.36,6.32-5.38,6.33h0s0,0,0,0h0s0,0,0,0c-.02-.01-5.27-2.9-5.38-6.33-.06-1.88,1.37-2.94,2.77-2.94,1.04,0,2.06.57,2.47,1.81.02.06.07.1.13.1s.11-.03.13-.1c.41-1.24,1.44-1.81,2.47-1.81M8.75,0C7.69,0,6.77.45,6.15,1.22,5.53.45,4.6,0,3.54,0,2.57,0,1.64.39.98,1.07.31,1.77-.03,2.68,0,3.73c.12,3.77,5.28,6.71,5.75,6.97.12.07.26.11.39.11.04,0,.08,0,.12,0,.1-.01.19-.05.28-.1.47-.26,5.63-3.2,5.75-6.97.03-1.04-.3-1.96-.97-2.65C10.66.39,9.72,0,8.75,0h0Z"/>
      </g>
      <g class="cls-5">
        <g>
          <rect class="cls-2" x="-.04" y="-1.56" width=".34" height="12.56"/>
          <rect class="cls-2" x="1.05" y="-1.56" width=".34" height="12.56"/>
          <rect class="cls-2" x="2.15" y="-1.56" width=".34" height="12.56"/>
          <rect class="cls-2" x="3.24" y="-1.56" width=".34" height="12.56"/>
          <rect class="cls-2" x="4.33" y="-1.56" width=".34" height="12.56"/>
          <rect class="cls-2" x="5.42" y="-1.56" width=".34" height="12.56"/>
          <rect class="cls-2" x="6.52" y="-1.56" width=".34" height="12.56"/>
          <rect class="cls-2" x="7.61" y="-1.56" width=".34" height="12.56"/>
          <rect class="cls-2" x="8.7" y="-1.56" width=".34" height="12.56"/>
          <rect class="cls-2" x="9.79" y="-1.56" width=".34" height="12.56"/>
          <rect class="cls-2" x="10.89" y="-1.56" width=".34" height="12.56"/>
          <rect class="cls-2" x="11.98" y="-1.56" width=".34" height="12.56"/>
          <rect class="cls-2" x="5.97" y="-5.38" width=".34" height="12.56" transform="translate(7.04 -5.24) rotate(90)"/>
          <rect class="cls-2" x="5.97" y="-4.29" width=".34" height="12.56" transform="translate(8.14 -4.14) rotate(90)"/>
          <rect class="cls-2" x="5.97" y="-3.19" width=".34" height="12.56" transform="translate(9.23 -3.05) rotate(90)"/>
          <rect class="cls-2" x="5.97" y="-2.1" width=".34" height="12.56" transform="translate(10.32 -1.96) rotate(90)"/>
          <rect class="cls-2" x="5.97" y="-1.01" width=".34" height="12.56" transform="translate(11.41 -.87) rotate(90)"/>
          <rect class="cls-2" x="5.97" y=".08" width=".34" height="12.56" transform="translate(12.51 .23) rotate(90)"/>
          <rect class="cls-2" x="5.97" y="1.18" width=".34" height="12.56" transform="translate(13.6 1.32) rotate(90)"/>
          <rect class="cls-2" x="5.97" y="2.27" width=".34" height="12.56" transform="translate(14.69 2.41) rotate(90)"/>
          <rect class="cls-2" x="5.97" y="3.36" width=".34" height="12.56" transform="translate(15.78 3.5) rotate(90)"/>
          <rect class="cls-2" x="5.97" y="4.45" width=".34" height="12.56" transform="translate(16.88 4.6) rotate(90)"/>
        </g>
      </g>
    </g>
  </g>
</svg>