<?xml version="1.0" encoding="UTF-8"?>
<svg id="Layer_2" data-name="Layer 2" xmlns="http://www.w3.org/2000/svg" xmlns:xlink="http://www.w3.org/1999/xlink" viewBox="0 0 14.76 13.27">
  <defs>
    <style>
      .cls-1 {
        fill: #bd4f7d;
      }

      .cls-2 {
        fill: url(#linear-gradient);
      }
    </style>
    <linearGradient id="linear-gradient" x1="1" y1="6.63" x2="13.76" y2="6.63" gradientUnits="userSpaceOnUse">
      <stop offset=".09" stop-color="#fcd5cd"/>
      <stop offset=".35" stop-color="#fcc9c9"/>
      <stop offset=".81" stop-color="#feabc1"/>
      <stop offset="1" stop-color="#ff9cbd"/>
    </linearGradient>
  </defs>
  <g id="Layer_1-2" data-name="Layer 1">
    <g>
      <path class="cls-2" d="M7.38,12.27c-.16,0-.32-.04-.46-.11-.06-.03-5.78-3.13-5.92-7.19-.04-1.11.32-2.08,1.04-2.82.7-.73,1.7-1.15,2.73-1.15s1.95.4,2.6,1.1c.66-.7,1.57-1.1,2.6-1.1s2.03.42,2.73,1.15c.72.74,1.08,1.72,1.04,2.82-.13,4.05-5.86,7.16-5.92,7.19-.14.07-.3.11-.46.11Z"/>
      <path class="cls-1" d="M9.98,2c1.41,0,2.84,1.06,2.77,2.94-.11,3.44-5.36,6.32-5.38,6.33h0s0,0,0,0h0s0,0,0,0c-.02-.01-5.27-2.9-5.38-6.33-.06-1.88,1.37-2.94,2.77-2.94,1.04,0,2.06.57,2.47,1.81.02.06.07.1.13.1s.11-.03.13-.1c.41-1.24,1.44-1.81,2.47-1.81M9.98,0C9.02,0,8.12.29,7.38.8,6.64.29,5.74,0,4.78,0,3.47,0,2.22.53,1.32,1.45.43,2.38-.04,3.64,0,5c.14,4.38,5.56,7.55,6.37,8,.31.18.66.27,1,.27.11,0,.22,0,.34-.03.23-.04.46-.12.67-.24.82-.45,6.23-3.62,6.37-8,.04-1.37-.42-2.63-1.32-3.55C12.54.53,11.29,0,9.98,0h0Z"/>
    </g>
  </g>
</svg>