<?xml version="1.0" encoding="UTF-8"?>
<svg xmlns="http://www.w3.org/2000/svg" xmlns:xlink="http://www.w3.org/1999/xlink" viewBox="0 0 25.42 39.6">
  <defs>
    <style>
      .cls-1 {
        fill: url(#linear-gradient-4);
      }

      .cls-2 {
        fill: url(#linear-gradient-3);
      }

      .cls-3 {
        fill: #bd4f7d;
      }

      .cls-4 {
        fill: url(#linear-gradient);
      }

      .cls-5 {
        isolation: isolate;
      }

      .cls-6 {
        fill: url(#linear-gradient-2);
      }

      .cls-6, .cls-7, .cls-8, .cls-9, .cls-10 {
        mix-blend-mode: overlay;
      }

      .cls-7 {
        fill: url(#linear-gradient-6);
      }

      .cls-8 {
        fill: url(#linear-gradient-5);
      }

      .cls-9 {
        fill: url(#linear-gradient-7);
      }

      .cls-11 {
        fill: #f780a5;
      }

      .cls-10 {
        opacity: .42;
      }
    </style>
    <linearGradient id="linear-gradient" x1="5.82" y1="19.8" x2="25.04" y2="19.8" gradientUnits="userSpaceOnUse">
      <stop offset=".04" stop-color="#f790b0"/>
      <stop offset=".29" stop-color="#fa9cbd"/>
      <stop offset=".66" stop-color="#fda8ca"/>
      <stop offset="1" stop-color="#ffadcf"/>
    </linearGradient>
    <linearGradient id="linear-gradient-2" x1="17.29" y1="10.74" x2="12.7" y2="33.67" gradientUnits="userSpaceOnUse">
      <stop offset="0" stop-color="#fff" stop-opacity="0"/>
      <stop offset=".18" stop-color="#fffefe" stop-opacity=".01"/>
      <stop offset=".31" stop-color="#fffbfc" stop-opacity=".05"/>
      <stop offset=".43" stop-color="#fff7fa" stop-opacity=".11"/>
      <stop offset=".54" stop-color="#fff2f6" stop-opacity=".2"/>
      <stop offset=".64" stop-color="#ffeaf1" stop-opacity=".32"/>
      <stop offset=".74" stop-color="#ffe1ea" stop-opacity=".46"/>
      <stop offset=".83" stop-color="#ffd7e3" stop-opacity=".62"/>
      <stop offset=".92" stop-color="#ffcadb" stop-opacity=".81"/>
      <stop offset="1" stop-color="#ffbfd3"/>
    </linearGradient>
    <linearGradient id="linear-gradient-3" x1="3.15" y1="3.8" x2="15.53" y2="12.58" xlink:href="#linear-gradient"/>
    <linearGradient id="linear-gradient-4" x1="3.46" y1="4.01" x2="15.65" y2="12.66" xlink:href="#linear-gradient"/>
    <linearGradient id="linear-gradient-5" x1="14.32" y1="7.87" x2=".62" y2="15.21" xlink:href="#linear-gradient-2"/>
    <linearGradient id="linear-gradient-6" x1="-76.41" y1="51.33" x2="-79.86" y2="44.52" gradientTransform="translate(73.41 -.46) rotate(28.21) scale(.81 .95) skewX(12.27)" xlink:href="#linear-gradient-2"/>
    <linearGradient id="linear-gradient-7" x1="-75.31" y1="50.09" x2="-78.76" y2="43.28" gradientTransform="translate(73.9 -1.07) rotate(28.21) scale(.81 .95) skewX(12.27)" xlink:href="#linear-gradient-2"/>
  </defs>
  <g class="cls-5">
    <g id="Layer_2" data-name="Layer 2">
      <g id="Layer_1-2" data-name="Layer 1">
        <g>
          <g>
            <path class="cls-4" d="M14.6,39.22c-.24,0-.35-.2-.42-.3-.04-.07-.1-.17-.17-.29-.13-.24-.32-.57-.55-.93-.82-1.25-1.7-1.95-2.63-2.1-.31-.05-.64-.08-.98-.08-1.89,0-3.47.82-3.49.83-.06.03-.12.04-.17.04-.09,0-.18-.03-.25-.09-.12-.1-.16-.26-.11-.41,0,0,.89-2.53,2.2-6.1,1.5-4.08,3.72-9.93,5.74-14.69,1.66-3.84,2.82-6.18,3.66-7.37C20.75,3.05,24.3.55,24.45.44c.06-.04.14-.07.21-.07.07,0,.13.02.19.05.13.08.2.22.18.36,0,.02-.25,2.28-.71,5.53-.67,4.7-1.79,11.44-3.34,16.91-.41,1.51-.88,2.93-1.37,4.2-2.46,6.33-3.73,9.32-4.27,10.6-.2.47-.34.8-.36.88-.04.17-.21.31-.38.31Z"/>
            <path class="cls-3" d="M24.67.75s-.24,2.24-.71,5.52c-.66,4.63-1.77,11.35-3.33,16.86-.41,1.5-.87,2.91-1.36,4.17-3.55,9.12-4.58,11.22-4.65,11.53,0,.01,0,.02-.01.02-.02,0-.05-.05-.1-.12-.13-.21-.37-.7-.73-1.24-.61-.93-1.56-2.05-2.88-2.26-.35-.06-.7-.08-1.04-.08-2.01,0-3.66.87-3.66.87,0,0,.89-2.53,2.2-6.09,1.57-4.26,3.75-10.01,5.73-14.67,1.41-3.27,2.7-6,3.62-7.3,3.31-4.69,6.92-7.21,6.92-7.21M24.67,0c-.15,0-.3.05-.43.14-.15.11-3.76,2.65-7.1,7.39-.86,1.21-2.03,3.57-3.7,7.44-2.02,4.76-4.24,10.63-5.75,14.71-1.3,3.52-2.19,6.08-2.2,6.1-.1.29-.02.61.22.82.14.12.31.18.49.18.12,0,.24-.03.35-.09.01,0,1.53-.79,3.31-.79.31,0,.62.02.91.07.82.13,1.62.78,2.37,1.93.23.34.41.67.54.91.07.13.13.24.18.32.07.12.28.47.73.47.36,0,.68-.27.75-.62.02-.04.16-.37.33-.79.54-1.28,1.81-4.27,4.28-10.61.5-1.29.97-2.72,1.38-4.24,1.55-5.48,2.68-12.25,3.35-16.95.47-3.26.71-5.52.71-5.55.03-.29-.11-.58-.36-.73-.12-.07-.25-.1-.38-.1h0ZM24.67,1.5h0,0Z"/>
          </g>
          <path class="cls-10" d="M24.67.75s-.24,2.24-.71,5.52c-.66,4.63-1.77,11.35-3.33,16.86-.41,1.5-.87,2.91-1.36,4.17-3.55,9.12-4.58,11.22-4.65,11.53-.01.05-.05,0-.11-.1.62-1.49,1.3-3.43,2-5.93,2.47-8.81,2.3-15.07.64-15.37-1.02-.18-5.46,6.96-8.75,12.5,1.57-4.26,3.75-10.01,5.73-14.67,1.41-3.27,2.7-6,3.62-7.3,3.31-4.69,6.92-7.21,6.92-7.21Z"/>
          <path class="cls-6" d="M14,17.01c-.04.64-6.77,17.28-6.85,17.7s3.79-.38,4.81-.09,1.11,1.83,2.3,2.17,4.55-9.11,5.62-13.91,2.38-10.21,2.38-10.21"/>
          <g>
            <g>
              <path class="cls-11" d="M10.47,8.67c-.33,0-5.01-.15-7.76-.58-1.6-.27-2.22-.54-2.32-1.02-.06-.31.05-.66.33-1.07C1.82,4.4,5.43,2.12,12,.92c1.65-.3,3.15-.45,4.46-.45,4.54,0,5.49,1.83,5.53,1.9.09.18.02.4-.16.5l-.46.24c-10.49,5.55-10.75,5.55-10.9,5.55Z"/>
              <path class="cls-3" d="M16.46.85c4.36,0,5.2,1.69,5.2,1.69,0,0-.17.09-.46.24-2.06,1.09-10.42,5.51-10.73,5.51-.25,0-4.93-.14-7.7-.58-1.14-.19-1.95-.42-2.01-.72-.19-1.01,3.06-4.2,11.31-5.7,1.76-.32,3.21-.44,4.39-.44M16.46.1h0c-1.33,0-2.86.15-4.53.46C5.25,1.77,1.55,4.13.41,5.78c-.34.49-.47.94-.39,1.34.15.77,1.08,1.06,2.62,1.32,2.77.44,7.49.59,7.82.59.27,0,.5,0,11.08-5.6.29-.15.46-.24.46-.24.36-.19.5-.63.32-.99-.11-.22-1.18-2.11-5.87-2.11h0Z"/>
            </g>
            <path class="cls-10" d="M21.2,2.78c-2.06,1.09-10.42,5.51-10.73,5.51-.25,0-4.93-.14-7.7-.58-.69-1.38.65-2.88,4.68-4.11,9.49-2.89,13.02-1.91,13.02-1.91l.73,1.09Z"/>
          </g>
          <g>
            <g>
              <path class="cls-2" d="M5.92,21.21c-.83-.09-1.39-.26-1.74-.82-.09-.13-.17-.29-.23-.47-.1-.26-.2-.61-.32-1.05l-.09-.32-.19-.65c-.35-1.11-.33-1.97-.31-2.72.02-.93.04-1.67-.6-2.69-.52-.84-1.05-1.97-1.45-3.1-.16-.42-.28-.84-.38-1.2-.33-1.25-.25-1.63-.13-1.83.07-.12.22-.26.53-.26.14,0,.33.03.59.08.47.09,1.19.22,2.26.22,2.19,0,4.86-.55,7.96-1.64,3.65-1.28,7.04-3.49,7.07-3.51.03-.02.07-.04.1-.05.61-.17,1.16-.26,1.64-.26.35,0,.62.03.86.1,1.26.32,1.9,1.47,1.73,3.14,0,.09-.02.19-.03.27,0,0,0,.02,0,.03-.31,2.01-1.6,4.4-3.37,6.24-3.55,3.7-11.62,10.52-13.78,10.52-.01,0-.11,0-.13,0Z"/>
              <path class="cls-3" d="M20.64,1.3s.04,0,.06,0c.26,0,.5.03.71.09,1.17.3,1.59,1.36,1.45,2.74,0,.09-.01.18-.03.27t0,0c-.28,1.86-1.51,4.21-3.27,6.04-3.79,3.94-11.6,10.4-13.51,10.4-.03,0-.06,0-.08,0-.83-.1-1.21-.25-1.46-.64-.07-.11-.14-.24-.2-.4-.12-.32-.23-.76-.39-1.34-.06-.2-.12-.42-.2-.66-.75-2.4.3-3.5-.95-5.5-.55-.88-1.05-2-1.41-3.03-.15-.42-.28-.82-.37-1.18-.2-.77-.29-1.35-.17-1.54.04-.06.1-.09.21-.09.37,0,1.22.3,2.85.3s4.29-.33,8.09-1.66c3.74-1.31,7.15-3.55,7.15-3.55.58-.17,1.09-.25,1.53-.25M20.64.55h0c-.51,0-1.1.09-1.74.28-.07.02-.14.05-.2.09-.03.02-3.39,2.21-6.99,3.47-3.06,1.07-5.7,1.62-7.84,1.62-1.04,0-1.73-.13-2.19-.21-.27-.05-.47-.08-.65-.08-.51,0-.75.28-.85.45-.2.32-.26.81.09,2.12.11.41.24.83.39,1.24.4,1.15.94,2.31,1.48,3.16.58.93.56,1.58.54,2.48-.02.78-.04,1.67.33,2.85l.05.17c.05.17.1.32.14.47l.09.32c.12.44.21.79.33,1.09.07.2.16.38.27.55.42.66,1.08.87,2,.97.05,0,.11,0,.17,0,2.5,0,11.09-7.55,14.05-10.63,1.82-1.89,3.15-4.36,3.47-6.44,0-.01,0-.03,0-.04.01-.09.02-.18.03-.27.19-1.88-.55-3.17-2.01-3.55-.27-.07-.56-.11-.9-.11h-.06Z"/>
            </g>
            <path class="cls-1" d="M22.86,4.12c0,.09-.01.19-.02.27t0,.01c-.29,1.86-1.14,4.61-2.9,6.44-3.85,4-12.23,10.2-13.97,10-.83-.1-1.21-.25-1.46-.65-.08-.1-.14-.24-.2-.4-.03-.09-.07-.2-.11-.31-.08-.28-.17-.62-.29-1.03-.05-.21-.12-.42-.19-.66-.76-2.4.3-3.5-.95-5.5-.55-.88-1.06-2-1.41-3.03-.16-.41-.28-.82-.38-1.17-.2-.77-.3-1.37-.16-1.55.62-.82,1.28-.29,3.52-.37,1.51-.04,3.73-.36,7.14-1.56,3.74-1.31,7.64-3.07,7.64-3.07.6-.17,1.13-.25,1.58-.24.26,0,.5.03.71.08,1.17.3,1.59,1.36,1.45,2.74Z"/>
          </g>
          <path class="cls-10" d="M22.86,4.12c0,.09-.01.19-.02.27t0,.01c-.29,1.86-1.14,4.61-2.9,6.44-3.85,4-12.23,10.2-13.97,10-.83-.1-1.21-.25-1.46-.65-.08-.1-.14-.24-.2-.4-.03-.09-.07-.2-.11-.31.77-.27,1.61-.61,2.52-1.03,7.11-3.23,10.81-8.21,7.71-6.97-3.11,1.23-7.54.55-4.18-1.24,3.37-1.79,6.69-4.89,1.41-3.74-3.21.7-5.79.19-7.32-.33,1.51-.04,3.73-.36,7.14-1.56,3.74-1.31,7.64-3.07,7.64-3.07.6-.17,1.13-.25,1.58-.24.26,0,.5.03.71.08,1.17.3,1.59,1.36,1.45,2.74Z"/>
          <path class="cls-8" d="M12.78,4.73s-3.81,1.48-7.09,1.68-4.09-.13-4.37.43,1.15,3.45,2.14,4.8.22,4.64.86,6.8,2.11,2.3,6.19-.72,8.65-6.24,10.01-8.46,1.29-4.23,1.29-4.23"/>
          <ellipse class="cls-7" cx="3.26" cy="10.42" rx=".78" ry="1.57" transform="translate(-3.74 2.04) rotate(-22.51)"/>
          <ellipse class="cls-9" cx="5.04" cy="11.36" rx=".42" ry=".84" transform="translate(-3.96 2.8) rotate(-22.51)"/>
        </g>
      </g>
    </g>
  </g>
</svg>