<?xml version="1.0" encoding="UTF-8"?>
<svg xmlns="http://www.w3.org/2000/svg" xmlns:xlink="http://www.w3.org/1999/xlink" viewBox="0 0 30.95 25.19">
  <defs>
    <style>
      .cls-1 {
        fill: url(#linear-gradient-8);
      }

      .cls-2 {
        fill: url(#linear-gradient-5);
      }

      .cls-3 {
        fill: url(#linear-gradient-3);
      }

      .cls-4 {
        fill: #bd4f7d;
      }

      .cls-5 {
        fill: url(#linear-gradient);
      }

      .cls-6 {
        isolation: isolate;
      }

      .cls-7 {
        fill: url(#linear-gradient-2);
      }

      .cls-7, .cls-8, .cls-9, .cls-10, .cls-11, .cls-12, .cls-13, .cls-14 {
        mix-blend-mode: overlay;
      }

      .cls-8 {
        fill: url(#linear-gradient-4);
      }

      .cls-9 {
        fill: url(#linear-gradient-9);
      }

      .cls-10 {
        fill: url(#linear-gradient-6);
      }

      .cls-11 {
        fill: url(#linear-gradient-7);
      }

      .cls-12 {
        fill: url(#linear-gradient-10);
      }

      .cls-13 {
        fill: url(#linear-gradient-12);
      }

      .cls-15 {
        fill: url(#linear-gradient-11);
      }

      .cls-14 {
        fill: #13151c;
        opacity: .28;
      }
    </style>
    <linearGradient id="linear-gradient" x1="11.08" y1="-4.5" x2="10.33" y2="9.78" gradientUnits="userSpaceOnUse">
      <stop offset=".11" stop-color="#ffb5ce"/>
      <stop offset=".48" stop-color="#ffaec9"/>
      <stop offset="1" stop-color="#ff9cbd"/>
    </linearGradient>
    <linearGradient id="linear-gradient-2" x1="7.65" y1="22.76" x2="12.68" y2="9.7" gradientUnits="userSpaceOnUse">
      <stop offset="0" stop-color="#fff"/>
      <stop offset=".83" stop-color="#fff" stop-opacity="0"/>
    </linearGradient>
    <linearGradient id="linear-gradient-3" x1="21.11" y1="-3.95" x2="20.35" y2="10.35" xlink:href="#linear-gradient"/>
    <linearGradient id="linear-gradient-4" x1="437.16" y1="22.76" x2="442.19" y2="9.7" gradientTransform="translate(459.53) rotate(-180) scale(1 -1)" xlink:href="#linear-gradient-2"/>
    <linearGradient id="linear-gradient-5" x1="8.25" y1="-3.88" x2="7.5" y2="10.31" xlink:href="#linear-gradient"/>
    <linearGradient id="linear-gradient-6" x1="7.31" y1="-24.99" x2="7.94" y2="69.07" xlink:href="#linear-gradient-2"/>
    <linearGradient id="linear-gradient-7" x1="4.29" y1="2.49" x2="4.39" y2="16.76" xlink:href="#linear-gradient-2"/>
    <linearGradient id="linear-gradient-8" x1="24.1" y1="-2.96" x2="23.35" y2="11.23" xlink:href="#linear-gradient"/>
    <linearGradient id="linear-gradient-9" x1="431.47" y1="-24.99" x2="432.1" y2="69.07" gradientTransform="translate(455.11) rotate(-180) scale(1 -1)" xlink:href="#linear-gradient-2"/>
    <linearGradient id="linear-gradient-10" x1="428.45" y1="2.49" x2="428.54" y2="16.76" gradientTransform="translate(455.11) rotate(-180) scale(1 -1)" xlink:href="#linear-gradient-2"/>
    <linearGradient id="linear-gradient-11" x1="16.26" y1="-4.22" x2="15.46" y2="10.9" xlink:href="#linear-gradient"/>
    <linearGradient id="linear-gradient-12" x1="15.48" y1="-6.96" x2="15.77" y2="36.21" xlink:href="#linear-gradient-2"/>
  </defs>
  <g class="cls-6">
    <g id="Layer_2" data-name="Layer 2">
      <g id="Layer_1-2" data-name="Layer 1">
        <g>
          <g>
            <g>
              <path class="cls-5" d="M10.3,24.69c-.05,0-.1,0-.15-.02-.2-.07-.28-.19-.48-.53-.26-.44-.8-1.35-1.39-1.78-.47-.35-1.44-.7-2.15-.95-.37-.13-.69-.25-.87-.34-.05-.02-.1-.04-.14-.07-.21-.13-.31-.29-.31-.49,0-.23,0-.34,4.92-8.11l.85-1.34s.04-.06.07-.09c.04-.09.1-.17.1-.17.1-.13.25-.2.41-.2.05,0,.1,0,.14.02l3.31,1.04.23.08c.26.09.4.38.3.64,0,0-1.61,4.55-2.88,8.04q-1.53,4.27-1.96,4.27Z"/>
              <path class="cls-4" d="M11.14,11.1l3.31,1.04.21.08s-1.61,4.55-2.88,8.04c-.78,2.18-1.45,3.94-1.49,3.94-.09-.03-.8-1.57-1.73-2.24-.8-.59-2.65-1.1-3.15-1.35h-.02c-.06-.05-.11-.06-.11-.09,0-.24,4.8-7.77,5.69-9.18l.05-.05c.06-.12.11-.18.11-.18M11.14,10.1c-.31,0-.61.14-.8.4-.02.03-.07.09-.12.19-.03.03-.05.07-.07.1-.17.26-.47.74-.85,1.34-4.99,7.88-4.99,7.96-4.99,8.37,0,.21.07.61.51.9.09.07.18.11.28.15.22.1.51.2.86.33.64.23,1.61.58,2.02.88.52.38,1.02,1.23,1.26,1.64.21.36.37.62.74.75.1.03.21.05.32.05q.78,0,2.43-4.61c1.26-3.49,2.88-8.04,2.88-8.04.18-.52-.09-1.09-.61-1.28l-.21-.08-3.35-1.05c-.1-.03-.2-.05-.3-.05h0Z"/>
            </g>
            <path class="cls-14" d="M14.66,12.21s-1.61,4.55-2.88,8.04c-.21-1.34-.56-2.47-1.1-2.91-1.16-.93-3.72,1.52-5.27,3.25h-.02c-.06-.05-.11-.06-.11-.09,0-.27,5.84-9.41,5.84-9.41l3.52,1.11Z"/>
            <path class="cls-7" d="M14.66,12.21s-1.61,4.55-2.88,8.04c-.78,2.18-1.45,3.94-1.49,3.94-.09-.03-.8-1.57-1.73-2.24-.8-.59-2.65-1.1-3.15-1.35h-.02c-.06-.05-.11-.06-.11-.09,0-.24,4.8-7.77,5.69-9.18l-4.98,8.97s2.21.54,2.6.83c.38.29,1.63,1.99,1.63,1.99l4.21-10.97.21.08Z"/>
          </g>
          <g>
            <g>
              <path class="cls-3" d="M19.72,24.69q-.43,0-1.96-4.27c-1.26-3.49-2.88-8.04-2.88-8.04-.09-.26.04-.54.3-.64l.21-.08,3.33-1.05s.1-.02.14-.02c.16,0,.31.07.41.2,0,0,.05.06.12.19.02.03.05.05.06.07l.85,1.34c4.92,7.77,4.92,7.87,4.92,8.11,0,.17-.14.38-.29.48-.03.02-.07.04-.11.06h0c-.18.09-.52.22-.93.37-.71.25-1.68.6-2.15.95-.6.44-1.14,1.35-1.4,1.79-.2.34-.27.46-.48.53-.05.02-.1.02-.15.02Z"/>
              <path class="cls-4" d="M18.88,11.1s.05.06.11.18l.05.05c.89,1.41,5.69,8.94,5.69,9.18,0,.03-.05.05-.11.09h-.02c-.5.26-2.35.77-3.15,1.35-.93.68-1.64,2.21-1.73,2.24-.05,0-.71-1.76-1.49-3.94-1.26-3.49-2.88-8.04-2.88-8.04l.21-.08,3.31-1.04M18.88,10.1c-.1,0-.2.01-.3.05l-3.31,1.04-.25.09c-.52.19-.79.76-.61,1.28,0,0,1.61,4.55,2.88,8.04q1.65,4.6,2.43,4.6c.11,0,.21-.02.32-.05.38-.13.53-.39.74-.75.24-.41.74-1.26,1.26-1.64.42-.31,1.39-.65,2.03-.88.37-.13.67-.24.9-.34.09-.03.18-.08.25-.13.44-.28.51-.68.51-.89,0-.41,0-.49-4.99-8.37-.38-.6-.68-1.08-.85-1.34-.02-.04-.05-.07-.07-.1-.06-.1-.1-.16-.12-.19-.19-.26-.49-.4-.8-.4h0Z"/>
            </g>
            <path class="cls-14" d="M15.35,12.21s1.61,4.55,2.88,8.04c.21-1.34.56-2.47,1.1-2.91,1.16-.93,3.72,1.52,5.27,3.25h.02c.06-.05.11-.06.11-.09,0-.27-5.84-9.41-5.84-9.41l-3.52,1.11Z"/>
            <path class="cls-8" d="M15.35,12.21s1.61,4.55,2.88,8.04c.78,2.18,1.45,3.94,1.49,3.94.09-.03.8-1.57,1.73-2.24.8-.59,2.65-1.1,3.15-1.35h.02c.06-.05.11-.06.11-.09,0-.24-4.8-7.77-5.69-9.18l4.98,8.97s-2.21.54-2.6.83c-.38.29-1.63,1.99-1.63,1.99l-4.21-10.97-.21.08Z"/>
          </g>
          <g>
            <g>
              <path class="cls-2" d="M4.13,15.91c-1.2,0-2-.39-2.39-1.16-.02-.05-.05-.1-.07-.17C.43,11.95-.18,5.46,1.59,2.33c.02-.04.04-.07.07-.1.55-.92,1.27-1.49,2.15-1.68.16-.03.33-.05.51-.05,1.32,0,3.45.88,6.35,2.63.02,0,.03.02.05.03h0c1.83,1.11,3.31,2.16,3.33,2.17.12.09.2.23.21.38l.33,5.98v.16c0,.18-.1.35-.26.44-.27.15-6.65,3.63-10.21,3.63Z"/>
              <path class="cls-4" d="M4.33,1c1.49,0,4.04,1.32,6.11,2.57.02,0,.03.02.03.02,1.84,1.11,3.3,2.15,3.3,2.15l.33,5.98v.14s-6.5,3.56-9.97,3.56c-.92,0-1.63-.25-1.94-.88-.02-.03-.03-.06-.05-.11-1.16-2.47-1.81-8.87-.12-11.85h.02c.45-.8,1.07-1.35,1.88-1.54.12-.03.26-.04.41-.04M4.33,0h0c-.22,0-.43.02-.62.06-1,.22-1.85.87-2.46,1.88-.04.04-.07.09-.1.14-1.83,3.24-1.22,9.92.06,12.72.03.07.05.12.08.17.33.66,1.08,1.44,2.84,1.44,3.68,0,10.17-3.54,10.45-3.69.32-.18.52-.51.52-.88v-.14s0-.04,0-.06l-.33-5.98c-.02-.3-.17-.58-.42-.76-.06-.04-1.51-1.07-3.36-2.19h0s-.04-.02-.06-.04C7.95.91,5.73,0,4.33,0h0Z"/>
            </g>
            <path class="cls-14" d="M14.09,11.85s-10.4,5.71-11.91,2.68c-.02-.03-.03-.06-.05-.11,4.95-.36,8.66-6.73,4.64-10.48-1.57-1.45-3.24-1.67-4.74-1.37.45-.8,1.07-1.35,1.88-1.54,2.51-.54,9.84,4.7,9.84,4.7l.33,6.11Z"/>
            <g>
              <path class="cls-10" d="M2.67,12.6c-.25-1.77-.38-3.69-.33-5.42.13.09.26.15.41.15.58,0,1.04-.81,1.04-1.81s-.44-1.75-1-1.8c.33-1.14.84-1.92,1.6-2.04,1.07-.17,3.66.81,6.04,1.9C8.16,2.2,5.3.74,3.92,1.04c-.81.18-1.43.74-1.88,1.54h-.02c-1.69,2.98-1.04,9.38.12,11.85.01.05.03.08.05.11,1.51,3.03,11.91-2.68,11.91-2.68v-.14c-2.18,1.07-10.84,5.03-11.43.89Z"/>
              <path class="cls-11" d="M4.32,6.43c-.34,0-.62.49-.62,1.09s.28,1.09.62,1.09.62-.49.62-1.09-.28-1.09-.62-1.09Z"/>
            </g>
          </g>
          <g>
            <g>
              <path class="cls-1" d="M26.82,15.91c-3.55,0-9.94-3.48-10.21-3.63-.16-.09-.26-.26-.26-.44v-.14l.33-6c0-.15.09-.29.21-.38.01-.01,1.5-1.06,3.33-2.17,0,0,.03-.02.05-.03,2.9-1.74,5.03-2.63,6.35-2.63.18,0,.36.02.51.05.89.2,1.61.76,2.16,1.69.03.03.05.06.07.09,1.77,3.13,1.16,9.62-.1,12.31,0,.02-.03.07-.05.12-.38.77-1.19,1.16-2.39,1.16h0Z"/>
              <path class="cls-4" d="M26.62,1c.15,0,.28.01.41.04.81.18,1.43.74,1.88,1.54h.02c1.69,2.98,1.04,9.38-.12,11.85-.01.05-.03.08-.05.11-.32.63-1.02.88-1.94.88-3.47,0-9.97-3.56-9.97-3.56v-.14l.33-5.98s1.46-1.04,3.3-2.15c0,0,.02-.02.03-.02,2.07-1.25,4.62-2.57,6.11-2.57M26.62,0c-1.41,0-3.63.91-6.6,2.69-.02.01-.04.02-.06.04h0c-1.85,1.12-3.3,2.15-3.36,2.19-.25.18-.4.46-.42.76l-.33,5.98s0,.04,0,.06v.14c0,.37.2.7.52.88.27.15,6.77,3.69,10.45,3.69,1.75,0,2.51-.78,2.84-1.44.03-.05.05-.1.08-.17,1.29-2.8,1.9-9.48.06-12.72-.03-.05-.06-.1-.1-.15-.61-1.01-1.45-1.65-2.45-1.87-.2-.04-.4-.06-.62-.06h0Z"/>
            </g>
            <path class="cls-14" d="M16.86,11.85s10.4,5.71,11.91,2.68c.02-.03.03-.06.05-.11-4.95-.36-8.66-6.73-4.64-10.48,1.57-1.45,3.24-1.67,4.74-1.37-.45-.8-1.07-1.35-1.88-1.54-2.51-.54-9.84,4.7-9.84,4.7l-.33,6.11Z"/>
            <g>
              <path class="cls-9" d="M28.28,12.6c.25-1.77.38-3.69.33-5.42-.13.09-.26.15-.41.15-.58,0-1.04-.81-1.04-1.81,0-.97.44-1.75,1-1.8-.33-1.14-.84-1.92-1.6-2.04-1.07-.17-3.66.81-6.04,1.9,2.27-1.37,5.13-2.83,6.52-2.53.81.18,1.43.74,1.88,1.54h.02c1.69,2.98,1.04,9.38-.12,11.85-.01.05-.03.08-.05.11-1.51,3.03-11.91-2.68-11.91-2.68v-.14c2.18,1.07,10.84,5.03,11.43.89Z"/>
              <path class="cls-12" d="M26.63,6.43c.34,0,.62.49.62,1.09,0,.6-.28,1.09-.62,1.09s-.62-.49-.62-1.09.28-1.09.62-1.09Z"/>
            </g>
          </g>
          <g>
            <g>
              <path class="cls-15" d="M14.22,12.51c-.6,0-1.18-.17-1.68-.5-.88-.54-1.44-1.55-1.44-2.63v-1.79c0-1.72,1.4-3.12,3.12-3.12h2.72c.69,0,1.34.22,1.88.65.77.55,1.24,1.48,1.24,2.47v1.79c0,.92-.39,1.78-1.08,2.35-.56.51-1.27.78-2.04.78h-2.72Z"/>
              <path class="cls-4" d="M16.95,4.97c.59,0,1.13.2,1.57.54.63.45,1.05,1.22,1.05,2.08v1.79c0,.8-.35,1.51-.9,1.97-.47.42-1.05.66-1.72.66h-2.72c-.51,0-.99-.15-1.4-.42-.74-.45-1.22-1.28-1.22-2.21v-1.79c0-1.45,1.17-2.62,2.62-2.62h2.72M16.95,3.97h-2.72c-2,0-3.62,1.62-3.62,3.62v1.79c0,1.25.65,2.42,1.7,3.07.55.36,1.22.57,1.92.57h2.72c.89,0,1.72-.32,2.39-.92.77-.65,1.23-1.65,1.23-2.71v-1.79c0-1.14-.54-2.22-1.45-2.88-.62-.49-1.37-.74-2.17-.74h0Z"/>
            </g>
            <path class="cls-14" d="M19.57,7.59v1.79c0,1.46-1.17,2.63-2.62,2.63h-2.72c-1.45,0-2.62-1.17-2.62-2.63v-.95c.62-.01,1.23-.08,1.87-.15,2.77-.38,4.28-1.46,5.04-2.77.63.45,1.05,1.22,1.05,2.08Z"/>
            <path class="cls-13" d="M19.57,7.59v1.79c0,.8-.35,1.51-.9,1.97.23-.45.41-1.02.48-1.69.24-2.3-.14-4.2-3.49-4.21-3.34-.03-3.76,2.27-3.51,3.91.14.77.41,1.58.68,2.23-.74-.45-1.22-1.28-1.22-2.21v-1.79c0-1.45,1.17-2.62,2.62-2.62h2.72c.59,0,1.13.2,1.57.54.63.45,1.05,1.22,1.05,2.08Z"/>
          </g>
        </g>
      </g>
    </g>
  </g>
</svg>