<?xml version="1.0" encoding="UTF-8"?>
<svg xmlns="http://www.w3.org/2000/svg" xmlns:xlink="http://www.w3.org/1999/xlink" viewBox="0 0 38.26 41.8">
  <defs>
    <style>
      .cls-1 {
        fill: url(#radial-gradient-7);
      }

      .cls-2 {
        fill: url(#radial-gradient-6);
      }

      .cls-3 {
        fill: url(#radial-gradient-5);
      }

      .cls-4 {
        fill: url(#radial-gradient-4);
      }

      .cls-5 {
        fill: url(#radial-gradient-9);
      }

      .cls-6 {
        fill: url(#radial-gradient-8);
      }

      .cls-7 {
        fill: url(#radial-gradient-3);
      }

      .cls-8 {
        fill: url(#radial-gradient-2);
      }

      .cls-9 {
        fill: url(#linear-gradient-7);
      }

      .cls-10 {
        fill: url(#linear-gradient-4);
      }

      .cls-11 {
        fill: #bd4f7d;
      }

      .cls-12 {
        fill: url(#radial-gradient);
      }

      .cls-13 {
        fill: url(#linear-gradient);
      }

      .cls-14 {
        isolation: isolate;
      }

      .cls-15 {
        fill: url(#linear-gradient-8);
      }

      .cls-15, .cls-16, .cls-17, .cls-18, .cls-19, .cls-20 {
        mix-blend-mode: overlay;
      }

      .cls-16 {
        fill: url(#linear-gradient-2);
      }

      .cls-17 {
        fill: url(#linear-gradient-3);
      }

      .cls-18 {
        fill: url(#linear-gradient-6);
      }

      .cls-19 {
        fill: url(#linear-gradient-5);
      }

      .cls-21 {
        fill: #d4588c;
      }

      .cls-20 {
        fill: #13151c;
        opacity: .28;
      }

      .cls-22 {
        fill: #ffeee0;
      }
    </style>
    <radialGradient id="radial-gradient" cx="2.83" cy="13.63" fx="2.83" fy="13.63" r="2.45" gradientUnits="userSpaceOnUse">
      <stop offset=".13" stop-color="#fae5c6"/>
      <stop offset=".98" stop-color="#facfa7"/>
    </radialGradient>
    <radialGradient id="radial-gradient-2" cx="5.67" cy="17.95" fx="5.67" fy="17.95" r="2.45" xlink:href="#radial-gradient"/>
    <radialGradient id="radial-gradient-3" cx="9.05" cy="21.77" fx="9.05" fy="21.77" r="2.45" xlink:href="#radial-gradient"/>
    <radialGradient id="radial-gradient-4" cx="18.3" cy="27.48" fx="18.3" fy="27.48" r="2.45" xlink:href="#radial-gradient"/>
    <radialGradient id="radial-gradient-5" cx="28.13" cy="28.95" fx="28.13" fy="28.95" r="2.45" xlink:href="#radial-gradient"/>
    <radialGradient id="radial-gradient-6" cx="28.13" cy="33.99" fx="28.13" fy="33.99" r="2.45" xlink:href="#radial-gradient"/>
    <radialGradient id="radial-gradient-7" cx="28.13" cy="38.97" fx="28.13" fy="38.97" r="2.45" xlink:href="#radial-gradient"/>
    <radialGradient id="radial-gradient-8" cx="23.16" cy="28.74" fx="23.16" fy="28.74" r="2.45" xlink:href="#radial-gradient"/>
    <radialGradient id="radial-gradient-9" cx="13.9" cy="24.83" fx="13.9" fy="24.83" r="2.75" xlink:href="#radial-gradient"/>
    <linearGradient id="linear-gradient" x1="257.05" y1="36.58" x2="256.25" y2="51.65" gradientTransform="translate(-166.08 -176.89) rotate(34.72)" gradientUnits="userSpaceOnUse">
      <stop offset=".11" stop-color="#ffb5ce"/>
      <stop offset=".48" stop-color="#ffaec9"/>
      <stop offset="1" stop-color="#ff9cbd"/>
    </linearGradient>
    <linearGradient id="linear-gradient-2" x1="256.05" y1="14.15" x2="256.72" y2="114.05" gradientTransform="translate(-166.08 -176.89) rotate(34.72)" gradientUnits="userSpaceOnUse">
      <stop offset="0" stop-color="#fff"/>
      <stop offset=".83" stop-color="#fff" stop-opacity="0"/>
    </linearGradient>
    <linearGradient id="linear-gradient-3" x1="252.84" y1="43.34" x2="252.95" y2="58.5" xlink:href="#linear-gradient-2"/>
    <linearGradient id="linear-gradient-4" x1="272.16" y1="37.39" x2="271.37" y2="52.46" xlink:href="#linear-gradient"/>
    <linearGradient id="linear-gradient-5" x1="-482.52" y1="13.99" x2="-481.85" y2="113.89" gradientTransform="translate(-339.39 -296.98) rotate(-145.28) scale(1 -1)" xlink:href="#linear-gradient-2"/>
    <linearGradient id="linear-gradient-6" x1="-485.73" y1="43.19" x2="-485.63" y2="58.34" gradientTransform="translate(-339.39 -296.98) rotate(-145.28) scale(1 -1)" xlink:href="#linear-gradient-2"/>
    <linearGradient id="linear-gradient-7" x1="265.13" y1="36.35" x2="264.28" y2="52.41" xlink:href="#linear-gradient"/>
    <linearGradient id="linear-gradient-8" x1="264.31" y1="33.44" x2="264.62" y2="79.29" xlink:href="#linear-gradient-2"/>
  </defs>
  <g class="cls-14">
    <g id="Layer_2" data-name="Layer 2">
      <g id="Layer_1-2" data-name="Layer 1">
        <g>
          <g>
            <path class="cls-12" d="M2.83,16.08c-.26,0-.52-.04-.77-.12-1.28-.42-1.98-1.82-1.56-3.1.33-1.01,1.27-1.68,2.33-1.68.26,0,.52.04.77.12,1.28.42,1.98,1.82,1.56,3.1-.33,1.01-1.27,1.68-2.33,1.68h0ZM2.83,12.8c-.36,0-.68.23-.79.57-.14.44.09.91.53,1.05.08.03.17.04.26.04.36,0,.68-.23.79-.57.14-.44-.09-.91-.53-1.05-.08-.03-.17-.04-.26-.04Z"/>
            <path class="cls-21" d="M2.83,11.55c.22,0,.44.03.65.11,1.09.36,1.68,1.54,1.32,2.63-.29.87-1.1,1.43-1.97,1.43-.22,0-.44-.03-.65-.11-1.09-.36-1.68-1.54-1.32-2.63.29-.87,1.1-1.43,1.97-1.43M2.83,14.84c.51,0,.98-.32,1.15-.83.21-.63-.13-1.32-.77-1.53-.13-.04-.25-.06-.38-.06-.51,0-.98.32-1.15.83-.21.63.13,1.32.77,1.53.13.04.25.06.38.06M2.83,10.8c-1.22,0-2.3.78-2.69,1.94-.24.72-.18,1.48.16,2.16.34.68.92,1.18,1.64,1.41.29.1.59.14.89.14,1.22,0,2.3-.78,2.69-1.94.49-1.48-.32-3.08-1.8-3.57-.29-.1-.59-.14-.89-.14h0ZM2.83,14.09s-.1,0-.14-.02c-.12-.04-.21-.12-.27-.23-.05-.11-.06-.23-.03-.35.06-.19.24-.31.43-.31.05,0,.1,0,.14.02.12.04.21.12.27.23s.06.23.03.35c-.06.19-.24.31-.43.31h0Z"/>
          </g>
          <path class="cls-22" d="M2.83,11.55c.22,0,.44.03.65.11,1.09.36,1.68,1.54,1.32,2.63-.29.87-1.1,1.43-1.97,1.43-.22,0-.44-.03-.65-.11-1.09-.36-1.68-1.54-1.32-2.63.29-.87,1.1-1.43,1.97-1.43M2.83,14.84c.51,0,.98-.32,1.15-.83.21-.63-.13-1.32-.77-1.53-.13-.04-.25-.06-.38-.06-.51,0-.98.32-1.15.83-.21.63.13,1.32.77,1.53.13.04.25.06.38.06M2.83,11.3c-1.01,0-1.9.64-2.21,1.6-.2.59-.15,1.22.13,1.78.28.56.76.97,1.35,1.16.24.08.48.12.73.12,1.01,0,1.9-.64,2.21-1.6.4-1.22-.26-2.54-1.48-2.94-.24-.08-.48-.12-.73-.12h0ZM2.83,14.59c-.1,0-.2-.02-.3-.05-.24-.08-.44-.25-.56-.48-.11-.23-.13-.49-.05-.73.13-.39.5-.66.91-.66.1,0,.2.02.3.05.24.08.44.25.55.48.11.23.13.49.05.73-.13.39-.5.66-.91.66h0Z"/>
          <g>
            <path class="cls-8" d="M5.67,20.4c-.26,0-.52-.04-.77-.12-1.28-.42-1.98-1.82-1.56-3.1.33-1.01,1.27-1.68,2.33-1.68.26,0,.52.04.77.12,1.28.42,1.98,1.82,1.56,3.1-.33,1.01-1.27,1.68-2.33,1.68h0ZM5.67,17.12c-.36,0-.68.23-.79.57-.14.44.09.91.53,1.05.08.03.17.04.26.04.36,0,.68-.23.79-.57.14-.44-.09-.91-.53-1.05-.08-.03-.17-.04-.26-.04Z"/>
            <path class="cls-21" d="M5.67,15.87c.22,0,.44.03.65.11,1.09.36,1.68,1.54,1.32,2.63-.29.87-1.1,1.43-1.97,1.43-.22,0-.44-.03-.65-.11-1.09-.36-1.68-1.54-1.32-2.63.29-.87,1.1-1.43,1.97-1.43M5.67,19.16c.51,0,.98-.32,1.15-.83.21-.63-.13-1.32-.77-1.53-.13-.04-.25-.06-.38-.06-.51,0-.98.32-1.15.83-.21.63.13,1.32.77,1.53.13.04.25.06.38.06M5.67,15.12c-1.22,0-2.3.78-2.69,1.94-.49,1.48.32,3.08,1.8,3.57.29.1.59.14.89.14,1.22,0,2.3-.78,2.69-1.94.49-1.48-.32-3.08-1.8-3.57-.29-.1-.59-.14-.89-.14h0ZM5.67,18.41s-.1,0-.14-.02c-.12-.04-.21-.12-.27-.23-.05-.11-.06-.23-.03-.35.06-.19.24-.31.43-.31.05,0,.1,0,.14.02.12.04.21.12.27.23s.06.23.03.35c-.06.19-.24.31-.43.31h0Z"/>
          </g>
          <path class="cls-22" d="M5.67,15.87c.22,0,.44.03.65.11,1.09.36,1.68,1.54,1.32,2.63-.29.87-1.1,1.43-1.97,1.43-.22,0-.44-.03-.65-.11-1.09-.36-1.68-1.54-1.32-2.63.29-.87,1.1-1.43,1.97-1.43M5.67,19.16c.51,0,.98-.32,1.15-.83.21-.63-.13-1.32-.77-1.53-.13-.04-.25-.06-.38-.06-.51,0-.98.32-1.15.83-.21.63.13,1.32.77,1.53.13.04.25.06.38.06M5.67,15.62c-1.01,0-1.9.64-2.21,1.6-.4,1.22.26,2.54,1.48,2.94.24.08.48.12.73.12,1.01,0,1.9-.64,2.21-1.6.4-1.22-.26-2.54-1.48-2.94-.24-.08-.48-.12-.73-.12h0ZM5.67,18.91c-.1,0-.2-.02-.3-.05-.24-.08-.44-.25-.55-.48-.11-.23-.13-.49-.05-.73.13-.39.5-.66.91-.66.1,0,.2.02.3.05.24.08.44.25.55.48s.13.49.05.73c-.13.39-.5.66-.91.66h0Z"/>
          <g>
            <path class="cls-7" d="M9.05,24.23c-.26,0-.52-.04-.77-.12-.62-.21-1.13-.64-1.42-1.23-.29-.58-.34-1.25-.14-1.87.33-1.01,1.27-1.68,2.33-1.68.26,0,.52.04.77.12,1.28.42,1.98,1.82,1.56,3.1-.33,1.01-1.27,1.68-2.33,1.68h0ZM9.05,20.94c-.36,0-.68.23-.79.57-.07.21-.05.44.05.63.1.2.27.35.48.42.08.03.17.04.26.04.36,0,.68-.23.79-.57.14-.44-.09-.91-.53-1.05-.08-.03-.17-.04-.26-.04Z"/>
            <path class="cls-21" d="M9.05,19.69c.22,0,.44.03.65.11,1.09.36,1.68,1.54,1.32,2.63-.29.87-1.1,1.43-1.97,1.43-.22,0-.44-.03-.65-.11-1.09-.36-1.68-1.54-1.32-2.63.29-.87,1.1-1.43,1.97-1.43M9.05,22.98c.51,0,.98-.32,1.15-.83.21-.63-.13-1.32-.77-1.53-.13-.04-.25-.06-.38-.06-.51,0-.98.32-1.15.83-.21.63.13,1.32.77,1.53.13.04.25.06.38.06M9.05,18.94c-1.22,0-2.3.78-2.69,1.94-.49,1.48.32,3.08,1.8,3.57.29.1.59.14.89.14,1.22,0,2.3-.78,2.69-1.94.49-1.48-.32-3.08-1.8-3.57-.29-.1-.59-.14-.89-.14h0ZM9.05,22.23s-.1,0-.14-.02c-.12-.04-.21-.12-.27-.23-.05-.11-.06-.23-.03-.35.06-.19.24-.31.43-.31.05,0,.1,0,.14.02.12.04.21.12.27.23.05.11.06.23.03.35-.06.19-.24.31-.43.31h0Z"/>
          </g>
          <path class="cls-22" d="M9.05,19.69c.22,0,.44.03.65.11,1.09.36,1.68,1.54,1.32,2.63-.29.87-1.1,1.43-1.97,1.43-.22,0-.44-.03-.65-.11-1.09-.36-1.68-1.54-1.32-2.63.29-.87,1.1-1.43,1.97-1.43M9.05,22.98c.51,0,.98-.32,1.15-.83.21-.63-.13-1.32-.77-1.53-.13-.04-.25-.06-.38-.06-.51,0-.98.32-1.15.83-.21.63.13,1.32.77,1.53.13.04.25.06.38.06M9.05,19.44c-1.01,0-1.9.64-2.21,1.6-.4,1.22.26,2.54,1.48,2.94.24.08.48.12.73.12,1.01,0,1.9-.64,2.21-1.6.4-1.22-.26-2.54-1.48-2.94-.24-.08-.48-.12-.73-.12h0ZM9.05,22.73c-.1,0-.2-.02-.3-.05-.24-.08-.44-.25-.55-.48-.11-.23-.13-.49-.05-.73.13-.39.5-.66.91-.66.1,0,.2.02.3.05.5.17.77.71.61,1.21-.13.39-.5.66-.91.66h0Z"/>
          <g>
            <path class="cls-4" d="M18.3,29.93c-.26,0-.52-.04-.77-.12-1.29-.42-1.98-1.82-1.56-3.1.33-1.01,1.27-1.68,2.33-1.68.26,0,.52.04.77.12.62.21,1.13.64,1.42,1.23.29.58.34,1.25.14,1.87-.33,1.01-1.27,1.68-2.33,1.68h0ZM18.3,26.64c-.36,0-.68.23-.79.57-.14.44.09.91.53,1.05.08.03.17.04.26.04.36,0,.68-.23.79-.57.07-.21.05-.44-.05-.64-.1-.2-.27-.35-.48-.42-.08-.03-.17-.04-.26-.04Z"/>
            <path class="cls-21" d="M18.3,25.4c.22,0,.44.03.65.11,1.09.36,1.68,1.54,1.32,2.63-.29.87-1.1,1.43-1.97,1.43-.22,0-.44-.03-.65-.11-1.09-.36-1.68-1.54-1.32-2.63.29-.87,1.1-1.43,1.97-1.43M18.3,28.68c.51,0,.98-.32,1.15-.83.21-.63-.13-1.32-.77-1.53-.13-.04-.25-.06-.38-.06-.51,0-.98.32-1.15.83-.21.63.13,1.32.77,1.53.13.04.25.06.38.06M18.3,24.65c-1.22,0-2.3.78-2.69,1.94-.24.72-.18,1.48.16,2.16.34.68.92,1.18,1.64,1.41.29.1.59.14.89.14,1.22,0,2.3-.78,2.69-1.94.49-1.48-.32-3.08-1.8-3.57-.29-.1-.59-.14-.89-.14h0ZM18.3,27.93s-.1,0-.14-.02c-.24-.08-.37-.34-.29-.58.06-.19.24-.31.43-.31.05,0,.1,0,.14.02.24.08.37.34.29.58-.06.19-.24.31-.43.31h0Z"/>
          </g>
          <path class="cls-22" d="M18.3,25.4c.22,0,.44.03.65.11,1.09.36,1.68,1.54,1.32,2.63-.29.87-1.1,1.43-1.97,1.43-.22,0-.44-.03-.65-.11-1.09-.36-1.68-1.54-1.32-2.63.29-.87,1.1-1.43,1.97-1.43M18.3,28.68c.51,0,.98-.32,1.15-.83.21-.63-.13-1.32-.77-1.53-.13-.04-.25-.06-.38-.06-.51,0-.98.32-1.15.83-.21.63.13,1.32.77,1.53.13.04.25.06.38.06M18.3,25.15c-1.01,0-1.9.64-2.21,1.6-.2.59-.15,1.22.13,1.78s.76.97,1.35,1.16c.24.08.48.12.73.12,1.01,0,1.9-.64,2.21-1.6.4-1.22-.26-2.54-1.48-2.94-.24-.08-.48-.12-.73-.12h0ZM18.3,28.43c-.1,0-.2-.02-.3-.05-.24-.08-.44-.25-.56-.48-.11-.23-.13-.49-.05-.73.13-.39.5-.66.91-.66.1,0,.2.02.3.05.24.08.44.25.55.48.11.23.13.49.05.73-.13.39-.5.66-.91.66h0Z"/>
          <g>
            <path class="cls-3" d="M28.13,31.4c-.26,0-.52-.04-.77-.12-.62-.21-1.13-.64-1.42-1.23-.29-.58-.34-1.25-.14-1.87.33-1.01,1.27-1.68,2.33-1.68.26,0,.52.04.77.12,1.29.42,1.98,1.82,1.56,3.1-.33,1.01-1.27,1.68-2.33,1.68h0ZM28.13,28.11c-.36,0-.68.23-.79.57-.07.21-.05.44.05.63.1.2.27.35.48.42.08.03.17.04.26.04.36,0,.68-.23.79-.57.14-.44-.09-.91-.53-1.05-.09-.03-.17-.04-.26-.04Z"/>
            <path class="cls-21" d="M28.13,26.87c.22,0,.44.03.65.11,1.09.36,1.68,1.54,1.32,2.63-.29.87-1.1,1.43-1.97,1.43-.22,0-.44-.03-.65-.11-1.09-.36-1.68-1.54-1.32-2.63.29-.87,1.1-1.43,1.97-1.43M28.13,30.15c.51,0,.98-.32,1.15-.83.21-.63-.13-1.32-.77-1.53-.13-.04-.25-.06-.38-.06-.51,0-.98.32-1.15.83-.21.63.13,1.32.77,1.53.13.04.25.06.38.06M28.13,26.12c-1.22,0-2.3.78-2.69,1.94-.49,1.48.32,3.08,1.8,3.57.29.1.59.14.89.14,1.22,0,2.3-.78,2.69-1.94.24-.72.18-1.48-.16-2.16-.34-.68-.92-1.18-1.64-1.41-.29-.1-.59-.14-.89-.14h0ZM28.13,29.4s-.1,0-.14-.02c-.12-.04-.21-.12-.27-.23-.05-.11-.06-.23-.03-.35.06-.19.24-.31.43-.31.05,0,.1,0,.14.02.12.04.21.12.27.23.05.11.06.23.03.35-.06.19-.24.31-.43.31h0Z"/>
          </g>
          <g>
            <path class="cls-2" d="M28.13,36.44c-.26,0-.52-.04-.77-.12-1.29-.42-1.98-1.82-1.56-3.1.33-1.01,1.27-1.68,2.33-1.68.26,0,.52.04.77.12.62.21,1.13.64,1.42,1.23.29.58.34,1.25.14,1.87-.33,1.01-1.27,1.68-2.33,1.68h0ZM28.13,33.16c-.36,0-.68.23-.79.57-.14.44.09.91.53,1.05.08.03.17.04.26.04.36,0,.68-.23.79-.57.07-.21.05-.44-.05-.63-.1-.2-.27-.35-.48-.42-.08-.03-.17-.04-.26-.04Z"/>
            <path class="cls-21" d="M28.13,31.91c.22,0,.44.03.65.11,1.09.36,1.68,1.54,1.32,2.63-.29.87-1.1,1.43-1.97,1.43-.22,0-.44-.03-.65-.11-1.09-.36-1.68-1.54-1.32-2.63.29-.87,1.1-1.43,1.97-1.43M28.13,35.2c.51,0,.98-.32,1.15-.83.21-.63-.13-1.32-.77-1.53-.13-.04-.25-.06-.38-.06-.51,0-.98.32-1.15.83-.21.63.13,1.32.77,1.53.13.04.25.06.38.06M28.13,31.16c-1.22,0-2.3.78-2.69,1.94-.49,1.48.32,3.08,1.8,3.57.29.1.59.14.89.14,1.22,0,2.3-.78,2.69-1.94.49-1.48-.32-3.08-1.8-3.57-.29-.1-.59-.14-.89-.14h0ZM28.13,34.45s-.1,0-.14-.02c-.12-.04-.21-.12-.27-.23-.05-.11-.06-.23-.03-.35.06-.19.24-.31.43-.31.05,0,.1,0,.14.02.12.04.21.12.27.23.05.11.06.23.03.35-.06.19-.24.31-.43.31h0Z"/>
          </g>
          <g>
            <path class="cls-1" d="M28.13,41.42c-.26,0-.52-.04-.77-.12-1.29-.42-1.98-1.82-1.56-3.1.33-1.01,1.27-1.68,2.33-1.68.26,0,.52.04.77.12,1.29.42,1.98,1.82,1.56,3.1-.33,1.01-1.27,1.68-2.33,1.68h0ZM28.13,38.13c-.36,0-.68.23-.79.57-.14.44.09.91.53,1.05.08.03.17.04.26.04.36,0,.68-.23.79-.57.14-.44-.09-.91-.53-1.05-.08-.03-.17-.04-.26-.04Z"/>
            <path class="cls-21" d="M28.13,36.89c.22,0,.44.03.65.11,1.09.36,1.68,1.54,1.32,2.63-.29.87-1.1,1.43-1.97,1.43-.22,0-.44-.03-.65-.11-1.09-.36-1.68-1.54-1.32-2.63.29-.87,1.1-1.43,1.97-1.43M28.13,40.18c.51,0,.98-.32,1.15-.83.21-.63-.13-1.32-.77-1.53-.13-.04-.25-.06-.38-.06-.51,0-.98.32-1.15.83-.21.63.13,1.32.77,1.53.13.04.25.06.38.06M28.13,36.14c-1.22,0-2.3.78-2.69,1.94-.24.72-.18,1.48.16,2.16.34.68.92,1.18,1.64,1.41.29.1.59.14.89.14,1.22,0,2.3-.78,2.69-1.94.49-1.48-.32-3.08-1.8-3.57-.29-.1-.59-.14-.89-.14h0ZM28.13,39.43s-.1,0-.14-.02c-.12-.04-.21-.12-.27-.23-.05-.11-.06-.23-.03-.35.06-.19.24-.31.43-.31.05,0,.1,0,.14.02.12.04.21.12.27.23.05.11.06.23.03.35-.06.19-.24.31-.43.31h0Z"/>
          </g>
          <path class="cls-22" d="M28.13,26.87c.22,0,.44.03.65.11,1.09.36,1.68,1.54,1.32,2.63-.29.87-1.1,1.43-1.97,1.43-.22,0-.44-.03-.65-.11-1.09-.36-1.68-1.54-1.32-2.63.29-.87,1.1-1.43,1.97-1.43M28.13,30.15c.51,0,.98-.32,1.15-.83.21-.63-.13-1.32-.77-1.53-.13-.04-.25-.06-.38-.06-.51,0-.98.32-1.15.83-.21.63.13,1.32.77,1.53.13.04.25.06.38.06M28.13,26.62c-1.01,0-1.9.64-2.21,1.6-.4,1.22.26,2.54,1.48,2.94.24.08.48.12.73.12,1.01,0,1.9-.64,2.21-1.6.2-.59.15-1.22-.13-1.78-.28-.56-.76-.97-1.35-1.16-.24-.08-.48-.12-.73-.12h0ZM28.13,29.9c-.1,0-.2-.02-.3-.05-.24-.08-.44-.25-.56-.48-.11-.23-.13-.49-.05-.73.13-.39.5-.66.91-.66.1,0,.2.02.3.05.24.08.44.25.55.48.11.23.13.49.05.73-.13.39-.5.66-.91.66h0Z"/>
          <path class="cls-22" d="M28.13,31.91c.22,0,.44.03.65.11,1.09.36,1.68,1.54,1.32,2.63-.29.87-1.1,1.43-1.97,1.43-.22,0-.44-.03-.65-.11-1.09-.36-1.68-1.54-1.32-2.63.29-.87,1.1-1.43,1.97-1.43M28.13,35.2c.51,0,.98-.32,1.15-.83.21-.63-.13-1.32-.77-1.53-.13-.04-.25-.06-.38-.06-.51,0-.98.32-1.15.83-.21.63.13,1.32.77,1.53.13.04.25.06.38.06M28.13,31.66c-1.01,0-1.9.64-2.21,1.6-.4,1.22.26,2.54,1.48,2.94.24.08.48.12.73.12,1.01,0,1.9-.64,2.21-1.6.4-1.22-.26-2.54-1.48-2.94-.24-.08-.48-.12-.73-.12h0ZM28.13,34.95c-.1,0-.2-.02-.3-.05-.5-.17-.77-.71-.61-1.21.13-.39.5-.66.91-.66.1,0,.2.02.3.05.24.08.44.25.55.48.11.23.13.49.05.73-.13.39-.5.66-.91.66h0Z"/>
          <path class="cls-22" d="M28.13,36.89c.22,0,.44.03.65.11,1.09.36,1.68,1.54,1.32,2.63-.29.87-1.1,1.43-1.97,1.43-.22,0-.44-.03-.65-.11-1.09-.36-1.68-1.54-1.32-2.63.29-.87,1.1-1.43,1.97-1.43M28.13,40.18c.51,0,.98-.32,1.15-.83.21-.63-.13-1.32-.77-1.53-.13-.04-.25-.06-.38-.06-.51,0-.98.32-1.15.83-.21.63.13,1.32.77,1.53.13.04.25.06.38.06M28.13,36.64c-1.01,0-1.9.64-2.21,1.6-.2.59-.15,1.22.13,1.78.28.56.76.97,1.35,1.16.24.08.48.12.73.12,1.01,0,1.9-.64,2.21-1.6.4-1.22-.26-2.54-1.48-2.94-.24-.08-.48-.12-.73-.12h0ZM28.13,39.93c-.1,0-.2-.02-.3-.05-.5-.17-.77-.71-.61-1.21.13-.39.5-.66.91-.66.1,0,.2.02.3.05.24.08.44.25.55.48.11.23.13.49.05.73-.13.39-.5.66-.91.66h0Z"/>
          <g>
            <path class="cls-6" d="M23.16,31.2c-.26,0-.52-.04-.77-.12-1.29-.42-1.98-1.82-1.56-3.1.33-1.01,1.27-1.68,2.33-1.68.26,0,.52.04.77.12,1.29.42,1.98,1.82,1.56,3.1-.33,1.01-1.27,1.68-2.33,1.68h0ZM23.16,27.91c-.36,0-.68.23-.79.57-.14.44.09.91.53,1.05.08.03.17.04.26.04.36,0,.68-.23.79-.57.14-.44-.09-.91-.53-1.05-.08-.03-.17-.04-.26-.04Z"/>
            <path class="cls-21" d="M23.16,26.66c.22,0,.44.03.65.11,1.09.36,1.68,1.54,1.32,2.63-.29.87-1.1,1.43-1.97,1.43-.22,0-.44-.03-.65-.11-1.09-.36-1.68-1.54-1.32-2.63.29-.87,1.1-1.43,1.97-1.43M23.16,29.95c.51,0,.98-.32,1.15-.83.21-.63-.13-1.32-.77-1.53-.13-.04-.25-.06-.38-.06-.51,0-.98.32-1.15.83-.21.63.13,1.32.77,1.53.13.04.25.06.38.06M23.16,25.91c-1.22,0-2.3.78-2.69,1.94-.49,1.48.32,3.08,1.8,3.57.29.1.59.14.89.14,1.22,0,2.3-.78,2.69-1.94.49-1.48-.32-3.08-1.8-3.57-.29-.1-.59-.14-.89-.14h0ZM23.16,29.2s-.1,0-.14-.02c-.12-.04-.21-.12-.27-.23-.05-.11-.06-.23-.03-.35.06-.19.24-.31.43-.31.05,0,.1,0,.14.02.12.04.21.12.27.23.05.11.06.23.03.35-.06.19-.24.31-.43.31h0Z"/>
          </g>
          <path class="cls-22" d="M23.16,26.66c.22,0,.44.03.65.11,1.09.36,1.68,1.54,1.32,2.63-.29.87-1.1,1.43-1.97,1.43-.22,0-.44-.03-.65-.11-1.09-.36-1.68-1.54-1.32-2.63.29-.87,1.1-1.43,1.97-1.43M23.16,29.95c.51,0,.98-.32,1.15-.83.21-.63-.13-1.32-.77-1.53-.13-.04-.25-.06-.38-.06-.51,0-.98.32-1.15.83-.21.63.13,1.32.77,1.53.13.04.25.06.38.06M23.16,26.41c-1.01,0-1.9.64-2.21,1.6-.4,1.22.26,2.54,1.48,2.94.24.08.48.12.73.12,1.01,0,1.9-.64,2.21-1.6.4-1.22-.26-2.54-1.48-2.94-.24-.08-.48-.12-.73-.12h0ZM23.16,29.7c-.1,0-.2-.02-.3-.05-.5-.17-.77-.71-.61-1.21.13-.39.5-.66.91-.66.1,0,.2.02.3.05.24.08.44.25.55.48.11.23.13.49.05.73-.13.39-.5.66-.91.66h0Z"/>
          <g>
            <path class="cls-5" d="M12.96,27.49c-.1,0-.2-.04-.27-.12-.08-.09-2.06-2.21-1.55-3.97.22-.75.85-1.23,1.6-1.23.62,0,1.27.35,1.52,1,.24-.15.52-.23.82-.23.54,0,1.06.28,1.38.72.32.45.38,1,.17,1.56-.63,1.73-3.58,2.26-3.61,2.26-.02,0-.04,0-.06,0Z"/>
            <path class="cls-21" d="M12.74,22.54c.63,0,1.25.45,1.25,1.24,0,.04.03.06.06.06.02,0,.04,0,.05-.03.26-.35.62-.51.97-.51.79,0,1.56.78,1.2,1.78-.55,1.51-3.31,2.02-3.32,2.02h0s0,0,0,0h0s0,0,0,0c0,0-1.91-2.06-1.46-3.6.2-.66.72-.97,1.24-.97M12.74,21.79h0c-.92,0-1.69.59-1.96,1.5-.56,1.91,1.41,4.09,1.63,4.33.14.15.34.24.55.24.05,0,.11,0,.16-.02.51-.1,3.2-.7,3.86-2.5.24-.66.16-1.36-.22-1.9-.38-.54-1.03-.88-1.68-.88-.23,0-.45.04-.65.11-.35-.54-.96-.88-1.68-.88h0Z"/>
          </g>
          <path class="cls-22" d="M12.74,22.54c.63,0,1.25.45,1.25,1.24,0,.04.03.06.06.06.02,0,.04,0,.05-.03.26-.35.62-.51.97-.51.79,0,1.56.78,1.2,1.78-.55,1.51-3.31,2.02-3.32,2.02h0s0,0,0,0h0s0,0,0,0c0,0-1.91-2.06-1.46-3.6.2-.66.72-.97,1.24-.97M12.74,22.33c-.54,0-1.2.29-1.45,1.12-.49,1.65,1.43,3.72,1.51,3.81l.08.08.12-.02c.3-.06,2.91-.61,3.48-2.16.18-.5.13-1-.15-1.41-.28-.4-.76-.65-1.24-.65-.34,0-.65.12-.91.34-.16-.72-.81-1.11-1.43-1.11h0Z"/>
        </g>
        <g>
          <g>
            <g>
              <path class="cls-13" d="M19.89,17.37c-.4-.04-9.85-1.06-12.01-3.84-.4-.51-.56-1.06-.47-1.63,0-.05.02-.11.04-.19.51-3.04,3.9-9.08,7.34-10.74.04-.02.08-.03.12-.04.58-.27,1.15-.4,1.69-.4.42,0,.82.08,1.2.24,1.27.52,2.76,2.68,4.43,6.4,0,.02.02.04.03.05h0c.93,2.08,1.58,3.89,1.59,3.91.06.15.04.32-.05.46l-3.33,5.42-.1.14c-.1.14-.26.23-.44.23-.02,0-.04,0-.06,0Z"/>
              <path class="cls-11" d="M16.6,1.06c.34,0,.68.06,1,.2,1.39.57,3,3.58,4.16,6.15.01,0,.02.03.02.03.93,2.08,1.58,3.87,1.58,3.87l-3.33,5.42-.08.12s-12.53-1.31-12.01-4.86c0-.04.01-.07.02-.12.48-2.86,3.79-8.83,7.06-10.41h.01c.53-.25,1.06-.39,1.57-.39M16.61,0h0c-.61,0-1.24.14-1.87.43-.06.02-.12.04-.17.06-3.56,1.72-7.07,7.91-7.64,11.14-.02.07-.03.13-.04.2-.1.71.1,1.41.58,2.03,2.26,2.91,11.35,3.93,12.38,4.04.04,0,.07,0,.11,0,.35,0,.67-.17.87-.46l.08-.12s.02-.03.03-.05l3.33-5.42c.17-.28.2-.61.09-.92-.03-.07-.67-1.85-1.6-3.94h0s-.02-.05-.03-.07C20.11,1.14,18.53.49,18.01.28c-.45-.18-.92-.28-1.41-.28h0Z"/>
            </g>
            <path class="cls-20" d="M19.95,16.85s-12.53-1.31-12.01-4.86c0-.04.01-.07.02-.12,4.54,2.68,11.62-.64,10.38-6.34-.49-2.21-1.81-3.42-3.31-4.06.88-.42,1.75-.54,2.57-.2,2.52,1.05,5.75,10.05,5.75,10.05l-3.41,5.53Z"/>
            <g>
              <path class="cls-16" d="M9.52,10.59c.86-1.7,1.9-3.45,2.99-4.93.05.16.14.29.27.37.5.35,1.4-.08,2.01-.95s.67-1.8.22-2.17c.98-.8,1.9-1.16,2.63-.81,1.03.5,2.7,2.92,4.12,5.31-1.16-2.57-2.77-5.57-4.16-6.15-.82-.33-1.69-.22-2.57.2h-.01c-3.27,1.57-6.58,7.55-7.06,10.4-.01.05-.02.08-.02.12-.52,3.55,12.01,4.86,12.01,4.86l.08-.12c-2.55-.39-12.5-2.17-10.51-6.14Z"/>
              <path class="cls-17" d="M14.7,6.21c-.3-.21-.84.05-1.21.58s-.42,1.12-.12,1.33.84-.05,1.21-.58.42-1.12.12-1.33Z"/>
            </g>
          </g>
          <g>
            <g>
              <path class="cls-10" d="M29.11,27.66c-3.44,0-8.03-8.99-8.54-10.02-.09-.17-.07-.38.04-.54l.08-.12,3.92-5.04c.1-.13.25-.2.41-.21h.35c.72,0,2.17.01,3.84.11,0,0,.07,0,.11,0,4.07.26,6.6.9,7.53,1.9.65.71.94,1.64.86,2.78,0,.04,0,.08,0,.12-.35,3.8-4.81,9.1-7.53,10.68,0,.01-.06.04-.1.06-.31.17-.63.25-.98.25h0Z"/>
              <path class="cls-11" d="M25.37,12.27c.65,0,2.14.01,3.84.12,0,0,0,0,.01,0,0,0,.02,0,.02,0,2.81.18,6.19.63,7.22,1.74.6.65.8,1.51.71,2.48h.01c-.33,3.63-4.77,8.82-7.27,10.28-.04.03-.07.05-.1.06-.22.12-.46.18-.71.18-3.21,0-8.07-9.72-8.07-9.72l.08-.12,3.9-5.02s.12,0,.34,0M25.37,11.21h-.35c-.32,0-.63.16-.82.41l-3.9,5.02s-.02.03-.03.05l-.08.12c-.22.32-.25.73-.08,1.08,1.21,2.42,5.43,10.31,9.02,10.31.43,0,.84-.11,1.22-.31.05-.03.11-.06.17-.1,2.82-1.67,7.39-7.13,7.75-11.06,0-.06,0-.13,0-.19.08-1.25-.27-2.32-1-3.12-.39-.41-1.55-1.66-7.86-2.07-.05,0-.1-.01-.15-.01-1.68-.1-3.13-.12-3.86-.12h0Z"/>
            </g>
            <path class="cls-20" d="M21.04,17.41s5.63,11.27,8.77,9.54c.03-.02.06-.03.1-.06-4.1-3.31-3.49-11.11,2.29-11.95,2.24-.31,3.84.5,4.97,1.67.09-.97-.11-1.83-.71-2.48-1.87-1.99-11.43-1.86-11.43-1.86l-3.99,5.13Z"/>
            <g>
              <path class="cls-19" d="M30.56,24.98c1.29-1.4,2.56-2.99,3.57-4.54-.17,0-.32-.03-.44-.12-.5-.35-.42-1.34.18-2.21s1.45-1.26,1.96-.97c.4-1.2.42-2.18-.16-2.75-.83-.79-3.68-1.5-6.42-2,2.81.18,6.19.63,7.22,1.74.6.65.8,1.51.71,2.48h.01c-.33,3.63-4.77,8.82-7.27,10.28-.04.03-.07.05-.1.06-3.14,1.73-8.77-9.54-8.77-9.54l.08-.12c1.26,2.25,6.42,10.94,9.44,7.69Z"/>
              <path class="cls-18" d="M32.84,18.59c.3.21.25.8-.12,1.33s-.91.78-1.21.58-.25-.8.12-1.33.91-.78,1.21-.58Z"/>
            </g>
          </g>
          <g>
            <g>
              <path class="cls-9" d="M23.45,19.6c-.66,0-1.29-.2-1.84-.58l-2.38-1.65c-.52-.36-.93-.87-1.16-1.46-.44-1.01-.32-2.23.33-3.17l1.08-1.56c.62-.89,1.64-1.42,2.73-1.42.67,0,1.33.2,1.88.59l2.38,1.65c.6.42,1.03,1.01,1.24,1.7.34.95.19,2.04-.41,2.91l-1.08,1.56c-.56.8-1.42,1.31-2.37,1.4-.12.02-.27.03-.41.03Z"/>
              <path class="cls-11" d="M22.22,10.3c.55,0,1.1.16,1.58.49l2.38,1.65c.51.36.87.85,1.04,1.42.28.78.18,1.7-.34,2.45l-1.08,1.56c-.48.7-1.21,1.1-1.98,1.17-.12.02-.24.02-.36.02-.54,0-1.06-.16-1.53-.48l-2.38-1.65c-.45-.31-.78-.73-.97-1.21-.37-.84-.29-1.85.27-2.67l1.08-1.56c.54-.78,1.41-1.2,2.29-1.2M22.22,9.24h0c-1.26,0-2.44.62-3.16,1.65l-1.08,1.56c-.76,1.09-.9,2.51-.37,3.7.26.65.72,1.24,1.33,1.66l2.38,1.65c.64.44,1.37.67,2.14.67.17,0,.33-.01.5-.03,1.07-.1,2.07-.69,2.72-1.62l1.08-1.56c.69-1,.87-2.26.47-3.39-.25-.8-.75-1.48-1.44-1.96l-2.38-1.65c-.65-.45-1.4-.68-2.19-.68h0Z"/>
            </g>
            <path class="cls-20" d="M26.88,16.31l-1.08,1.56c-.88,1.27-2.62,1.59-3.88.72l-2.38-1.65c-1.26-.87-1.58-2.61-.69-3.88l.57-.83c.55.36,1.12.68,1.72,1,2.65,1.35,4.61,1.31,6.08.63.28.78.18,1.7-.34,2.45Z"/>
            <path class="cls-15" d="M26.88,16.31l-1.08,1.56c-.48.7-1.21,1.1-1.98,1.17.47-.26.97-.65,1.44-1.18,1.6-1.86,2.42-3.75-.5-5.79-2.9-2.05-4.66-.29-5.43,1.29-.35.75-.6,1.63-.76,2.35-.37-.84-.29-1.85.27-2.67l1.08-1.56c.87-1.26,2.61-1.58,3.87-.7l2.38,1.65c.51.36.87.85,1.04,1.42.28.78.18,1.7-.34,2.45Z"/>
          </g>
        </g>
      </g>
    </g>
  </g>
</svg>