<?xml version="1.0" encoding="UTF-8"?>
<svg id="Layer_2" data-name="Layer 2" xmlns="http://www.w3.org/2000/svg" xmlns:xlink="http://www.w3.org/1999/xlink" viewBox="0 0 55.52 22.72">
  <defs>
    <style>
      .cls-1 {
        fill: url(#radial-gradient-7);
      }

      .cls-2 {
        fill: url(#radial-gradient-6);
      }

      .cls-3 {
        fill: url(#radial-gradient-5);
      }

      .cls-4 {
        fill: url(#radial-gradient-4);
      }

      .cls-5 {
        fill: url(#radial-gradient-9);
      }

      .cls-6 {
        fill: url(#radial-gradient-8);
      }

      .cls-7 {
        fill: url(#radial-gradient-3);
      }

      .cls-8 {
        fill: url(#radial-gradient-2);
      }

      .cls-9 {
        fill: url(#radial-gradient);
      }

      .cls-10 {
        fill: url(#radial-gradient-10);
      }

      .cls-11 {
        fill: #d4588c;
      }

      .cls-12 {
        fill: #ffeee0;
      }
    </style>
    <radialGradient id="radial-gradient" cx="3.93" cy="4.26" fx="3.93" fy="4.26" r="3.55" gradientUnits="userSpaceOnUse">
      <stop offset=".13" stop-color="#fae5c6"/>
      <stop offset=".98" stop-color="#facfa7"/>
    </radialGradient>
    <radialGradient id="radial-gradient-2" cx="9.5" cy="8.75" fx="9.5" fy="8.75" r="3.55" xlink:href="#radial-gradient"/>
    <radialGradient id="radial-gradient-3" cx="15.69" cy="12.46" fx="15.69" fy="12.46" r="3.55" xlink:href="#radial-gradient"/>
    <radialGradient id="radial-gradient-4" cx="44.32" cy="3.93" fx="44.32" fy="3.93" xlink:href="#radial-gradient"/>
    <radialGradient id="radial-gradient-5" cx="51.59" cy="4.29" fx="51.59" fy="4.29" r="3.55" xlink:href="#radial-gradient"/>
    <radialGradient id="radial-gradient-6" cx="51.59" cy="11.45" fx="51.59" fy="11.45" r="3.55" xlink:href="#radial-gradient"/>
    <radialGradient id="radial-gradient-7" cx="51.59" cy="18.79" fx="51.59" fy="18.79" r="3.55" xlink:href="#radial-gradient"/>
    <radialGradient id="radial-gradient-8" cx="38.89" cy="8.85" fx="38.89" fy="8.85" r="3.55" xlink:href="#radial-gradient"/>
    <radialGradient id="radial-gradient-9" cx="32.9" cy="12.46" fx="32.9" fy="12.46" r="3.55" xlink:href="#radial-gradient"/>
    <radialGradient id="radial-gradient-10" cx="24.38" cy="13.58" fx="24.38" fy="13.58" r="4.65" xlink:href="#radial-gradient"/>
  </defs>
  <g id="Layer_1-2" data-name="Layer 1">
    <g>
      <g>
        <path class="cls-9" d="M3.93,7.81c-1.96,0-3.55-1.59-3.55-3.55S1.97.7,3.93.7s3.55,1.59,3.55,3.55-1.59,3.55-3.55,3.55ZM3.93,2.79c-.81,0-1.47.66-1.47,1.47s.66,1.47,1.47,1.47,1.47-.66,1.47-1.47-.66-1.47-1.47-1.47Z"/>
        <path class="cls-11" d="M3.93,1.08c1.76,0,3.18,1.42,3.18,3.18s-1.42,3.18-3.18,3.18S.75,6.01.75,4.26,2.17,1.08,3.93,1.08M3.93,6.1c1.02,0,1.85-.83,1.85-1.85s-.83-1.85-1.85-1.85-1.85.83-1.85,1.85.83,1.85,1.85,1.85M3.93.33C1.76.33,0,2.09,0,4.26s1.76,3.93,3.93,3.93,3.93-1.76,3.93-3.93S6.09.33,3.93.33h0ZM3.93,5.35c-.6,0-1.1-.49-1.1-1.1s.49-1.1,1.1-1.1,1.1.49,1.1,1.1-.49,1.1-1.1,1.1h0Z"/>
      </g>
      <g>
        <path class="cls-8" d="M9.5,12.3c-1.96,0-3.55-1.59-3.55-3.55s1.59-3.55,3.55-3.55,3.55,1.59,3.55,3.55-1.59,3.55-3.55,3.55ZM9.5,7.27c-.81,0-1.47.66-1.47,1.47s.66,1.47,1.47,1.47,1.47-.66,1.47-1.47-.66-1.47-1.47-1.47Z"/>
        <path class="cls-11" d="M9.5,5.57c1.76,0,3.18,1.42,3.18,3.18s-1.42,3.18-3.18,3.18-3.18-1.42-3.18-3.18,1.42-3.18,3.18-3.18M9.5,10.59c1.02,0,1.85-.83,1.85-1.85s-.83-1.85-1.85-1.85-1.85.83-1.85,1.85.83,1.85,1.85,1.85M9.5,4.82c-2.17,0-3.93,1.76-3.93,3.93s1.76,3.93,3.93,3.93,3.93-1.76,3.93-3.93-1.76-3.93-3.93-3.93h0ZM9.5,9.84c-.6,0-1.1-.49-1.1-1.1s.49-1.1,1.1-1.1,1.1.49,1.1,1.1-.49,1.1-1.1,1.1h0Z"/>
      </g>
      <g>
        <path class="cls-7" d="M15.69,16.02c-1.96,0-3.55-1.59-3.55-3.55s1.59-3.55,3.55-3.55,3.55,1.59,3.55,3.55-1.59,3.55-3.55,3.55ZM15.69,10.99c-.81,0-1.47.66-1.47,1.47s.66,1.47,1.47,1.47,1.47-.66,1.47-1.47-.66-1.47-1.47-1.47Z"/>
        <path class="cls-11" d="M15.69,9.29c1.76,0,3.18,1.42,3.18,3.18s-1.42,3.18-3.18,3.18-3.18-1.42-3.18-3.18,1.42-3.18,3.18-3.18M15.69,14.31c1.02,0,1.85-.83,1.85-1.85s-.83-1.85-1.85-1.85-1.85.83-1.85,1.85.83,1.85,1.85,1.85M15.69,8.54c-2.17,0-3.93,1.76-3.93,3.93s1.76,3.93,3.93,3.93,3.93-1.76,3.93-3.93-1.76-3.93-3.93-3.93h0ZM15.69,13.56c-.6,0-1.1-.49-1.1-1.1s.49-1.1,1.1-1.1,1.1.49,1.1,1.1-.49,1.1-1.1,1.1h0Z"/>
      </g>
      <g>
        <path class="cls-4" d="M44.32,7.48c-1.96,0-3.55-1.59-3.55-3.55s1.59-3.55,3.55-3.55,3.55,1.59,3.55,3.55-1.59,3.55-3.55,3.55ZM44.32,2.46c-.81,0-1.47.66-1.47,1.47s.66,1.47,1.47,1.47,1.47-.66,1.47-1.47-.66-1.47-1.47-1.47Z"/>
        <path class="cls-11" d="M44.32.75c1.76,0,3.18,1.42,3.18,3.18s-1.42,3.18-3.18,3.18-3.18-1.42-3.18-3.18,1.42-3.18,3.18-3.18M44.32,5.77c1.02,0,1.85-.83,1.85-1.85s-.83-1.85-1.85-1.85-1.85.83-1.85,1.85.83,1.85,1.85,1.85M44.32,0c-2.17,0-3.93,1.76-3.93,3.93s1.76,3.93,3.93,3.93,3.93-1.76,3.93-3.93-1.76-3.93-3.93-3.93h0ZM44.32,5.02c-.6,0-1.1-.49-1.1-1.1s.49-1.1,1.1-1.1,1.1.49,1.1,1.1-.49,1.1-1.1,1.1h0Z"/>
      </g>
      <g>
        <path class="cls-3" d="M51.59,7.85c-1.96,0-3.55-1.59-3.55-3.55s1.59-3.55,3.55-3.55,3.55,1.59,3.55,3.55-1.59,3.55-3.55,3.55ZM51.59,2.82c-.81,0-1.47.66-1.47,1.47s.66,1.47,1.47,1.47,1.47-.66,1.47-1.47-.66-1.47-1.47-1.47Z"/>
        <path class="cls-11" d="M51.59,1.12c1.76,0,3.18,1.42,3.18,3.18s-1.42,3.18-3.18,3.18-3.18-1.42-3.18-3.18,1.42-3.18,3.18-3.18M51.59,6.14c1.02,0,1.85-.83,1.85-1.85s-.83-1.85-1.85-1.85-1.85.83-1.85,1.85.83,1.85,1.85,1.85M51.59.37c-2.17,0-3.93,1.76-3.93,3.93s1.76,3.93,3.93,3.93,3.93-1.76,3.93-3.93-1.76-3.93-3.93-3.93h0ZM51.59,5.39c-.6,0-1.1-.49-1.1-1.1s.49-1.1,1.1-1.1,1.1.49,1.1,1.1-.49,1.1-1.1,1.1h0Z"/>
      </g>
      <g>
        <path class="cls-2" d="M51.59,15c-1.96,0-3.55-1.59-3.55-3.55s1.59-3.55,3.55-3.55,3.55,1.59,3.55,3.55-1.59,3.55-3.55,3.55ZM51.59,9.98c-.81,0-1.47.66-1.47,1.47s.66,1.47,1.47,1.47,1.47-.66,1.47-1.47-.66-1.47-1.47-1.47Z"/>
        <path class="cls-11" d="M51.59,8.27c1.76,0,3.18,1.42,3.18,3.18s-1.42,3.18-3.18,3.18-3.18-1.42-3.18-3.18,1.42-3.18,3.18-3.18M51.59,13.29c1.02,0,1.85-.83,1.85-1.85s-.83-1.85-1.85-1.85-1.85.83-1.85,1.85.83,1.85,1.85,1.85M51.59,7.52c-2.17,0-3.93,1.76-3.93,3.93s1.76,3.93,3.93,3.93,3.93-1.76,3.93-3.93-1.76-3.93-3.93-3.93h0ZM51.59,12.54c-.6,0-1.1-.49-1.1-1.1s.49-1.1,1.1-1.1,1.1.49,1.1,1.1-.49,1.1-1.1,1.1h0Z"/>
      </g>
      <g>
        <path class="cls-1" d="M51.59,22.35c-1.96,0-3.55-1.59-3.55-3.55s1.59-3.55,3.55-3.55,3.55,1.59,3.55,3.55-1.59,3.55-3.55,3.55ZM51.59,17.32c-.81,0-1.47.66-1.47,1.47s.66,1.47,1.47,1.47,1.47-.66,1.47-1.47-.66-1.47-1.47-1.47Z"/>
        <path class="cls-11" d="M51.59,15.62c1.76,0,3.18,1.42,3.18,3.18s-1.42,3.18-3.18,3.18-3.18-1.42-3.18-3.18,1.42-3.18,3.18-3.18M51.59,20.64c1.02,0,1.85-.83,1.85-1.85s-.83-1.85-1.85-1.85-1.85.83-1.85,1.85.83,1.85,1.85,1.85M51.59,14.87c-2.17,0-3.93,1.76-3.93,3.93s1.76,3.93,3.93,3.93,3.93-1.76,3.93-3.93-1.76-3.93-3.93-3.93h0ZM51.59,19.89c-.6,0-1.1-.49-1.1-1.1s.49-1.1,1.1-1.1,1.1.49,1.1,1.1-.49,1.1-1.1,1.1h0Z"/>
      </g>
      <path class="cls-12" d="M51.59,1.12c1.76,0,3.18,1.42,3.18,3.18s-1.42,3.18-3.18,3.18-3.18-1.42-3.18-3.18,1.42-3.18,3.18-3.18M51.59,6.14c1.02,0,1.85-.83,1.85-1.85s-.83-1.85-1.85-1.85-1.85.83-1.85,1.85.83,1.85,1.85,1.85M51.59.87c-1.89,0-3.43,1.54-3.43,3.43s1.54,3.43,3.43,3.43,3.43-1.54,3.43-3.43-1.54-3.43-3.43-3.43h0ZM51.59,5.89c-.88,0-1.6-.72-1.6-1.6s.72-1.6,1.6-1.6,1.6.72,1.6,1.6-.72,1.6-1.6,1.6h0Z"/>
      <path class="cls-12" d="M51.59,8.27c1.76,0,3.18,1.42,3.18,3.18s-1.42,3.18-3.18,3.18-3.18-1.42-3.18-3.18,1.42-3.18,3.18-3.18M51.59,13.29c1.02,0,1.85-.83,1.85-1.85s-.83-1.85-1.85-1.85-1.85.83-1.85,1.85.83,1.85,1.85,1.85M51.59,8.02c-1.89,0-3.43,1.54-3.43,3.43s1.54,3.43,3.43,3.43,3.43-1.54,3.43-3.43-1.54-3.43-3.43-3.43h0ZM51.59,13.04c-.88,0-1.6-.72-1.6-1.6s.72-1.6,1.6-1.6,1.6.72,1.6,1.6-.72,1.6-1.6,1.6h0Z"/>
      <path class="cls-12" d="M51.59,15.62c1.76,0,3.18,1.42,3.18,3.18s-1.42,3.18-3.18,3.18-3.18-1.42-3.18-3.18,1.42-3.18,3.18-3.18M51.59,20.64c1.02,0,1.85-.83,1.85-1.85s-.83-1.85-1.85-1.85-1.85.83-1.85,1.85.83,1.85,1.85,1.85M51.59,15.37c-1.89,0-3.43,1.54-3.43,3.43s1.54,3.43,3.43,3.43,3.43-1.54,3.43-3.43-1.54-3.43-3.43-3.43h0ZM51.59,20.39c-.88,0-1.6-.72-1.6-1.6s.72-1.6,1.6-1.6,1.6.72,1.6,1.6-.72,1.6-1.6,1.6h0Z"/>
      <g>
        <path class="cls-6" d="M38.89,12.4c-1.96,0-3.55-1.59-3.55-3.55s1.59-3.55,3.55-3.55,3.55,1.59,3.55,3.55-1.59,3.55-3.55,3.55ZM38.89,7.38c-.81,0-1.47.66-1.47,1.47s.66,1.47,1.47,1.47,1.47-.66,1.47-1.47-.66-1.47-1.47-1.47Z"/>
        <path class="cls-11" d="M38.89,5.67c1.76,0,3.18,1.42,3.18,3.18s-1.42,3.18-3.18,3.18-3.18-1.42-3.18-3.18,1.42-3.18,3.18-3.18M38.89,10.7c1.02,0,1.85-.83,1.85-1.85s-.83-1.85-1.85-1.85-1.85.83-1.85,1.85.83,1.85,1.85,1.85M38.89,4.92c-2.17,0-3.93,1.76-3.93,3.93s1.76,3.93,3.93,3.93,3.93-1.76,3.93-3.93-1.76-3.93-3.93-3.93h0ZM38.89,9.95c-.6,0-1.1-.49-1.1-1.1s.49-1.1,1.1-1.1,1.1.49,1.1,1.1-.49,1.1-1.1,1.1h0Z"/>
      </g>
      <path class="cls-12" d="M38.89,5.67c1.76,0,3.18,1.42,3.18,3.18s-1.42,3.18-3.18,3.18-3.18-1.42-3.18-3.18,1.42-3.18,3.18-3.18M38.89,10.7c1.02,0,1.85-.83,1.85-1.85s-.83-1.85-1.85-1.85-1.85.83-1.85,1.85.83,1.85,1.85,1.85M38.89,5.42c-1.89,0-3.43,1.54-3.43,3.43s1.54,3.43,3.43,3.43,3.43-1.54,3.43-3.43-1.54-3.43-3.43-3.43h0ZM38.89,10.45c-.88,0-1.6-.72-1.6-1.6s.72-1.6,1.6-1.6,1.6.72,1.6,1.6-.72,1.6-1.6,1.6h0Z"/>
      <g>
        <path class="cls-5" d="M32.9,16.02c-1.96,0-3.55-1.59-3.55-3.55s1.59-3.55,3.55-3.55,3.55,1.59,3.55,3.55-1.59,3.55-3.55,3.55ZM32.9,10.99c-.81,0-1.47.66-1.47,1.47s.66,1.47,1.47,1.47,1.47-.66,1.47-1.47-.66-1.47-1.47-1.47Z"/>
        <path class="cls-11" d="M32.9,9.29c1.76,0,3.18,1.42,3.18,3.18s-1.42,3.18-3.18,3.18-3.18-1.42-3.18-3.18,1.42-3.18,3.18-3.18M32.9,14.31c1.02,0,1.85-.83,1.85-1.85s-.83-1.85-1.85-1.85-1.85.83-1.85,1.85.83,1.85,1.85,1.85M32.9,8.54c-2.17,0-3.93,1.76-3.93,3.93s1.76,3.93,3.93,3.93,3.93-1.76,3.93-3.93-1.76-3.93-3.93-3.93h0ZM32.9,13.56c-.6,0-1.1-.49-1.1-1.1s.49-1.1,1.1-1.1,1.1.49,1.1,1.1-.49,1.1-1.1,1.1h0Z"/>
      </g>
      <path class="cls-12" d="M3.93,1.08c1.76,0,3.18,1.42,3.18,3.18s-1.42,3.18-3.18,3.18S.75,6.01.75,4.26,2.17,1.08,3.93,1.08M3.93,6.1c1.02,0,1.85-.83,1.85-1.85s-.83-1.85-1.85-1.85-1.85.83-1.85,1.85.83,1.85,1.85,1.85M3.93.83C2.04.83.5,2.37.5,4.26s1.54,3.43,3.43,3.43,3.43-1.54,3.43-3.43S5.82.83,3.93.83h0ZM3.93,5.85c-.88,0-1.6-.72-1.6-1.6s.72-1.6,1.6-1.6,1.6.72,1.6,1.6-.72,1.6-1.6,1.6h0Z"/>
      <path class="cls-12" d="M9.5,5.57c1.76,0,3.18,1.42,3.18,3.18s-1.42,3.18-3.18,3.18-3.18-1.42-3.18-3.18,1.42-3.18,3.18-3.18M9.5,10.59c1.02,0,1.85-.83,1.85-1.85s-.83-1.85-1.85-1.85-1.85.83-1.85,1.85.83,1.85,1.85,1.85M9.5,5.32c-1.89,0-3.43,1.54-3.43,3.43s1.54,3.43,3.43,3.43,3.43-1.54,3.43-3.43-1.54-3.43-3.43-3.43h0ZM9.5,10.34c-.88,0-1.6-.72-1.6-1.6s.72-1.6,1.6-1.6,1.6.72,1.6,1.6-.72,1.6-1.6,1.6h0Z"/>
      <path class="cls-12" d="M15.69,9.29c1.76,0,3.18,1.42,3.18,3.18s-1.42,3.18-3.18,3.18-3.18-1.42-3.18-3.18,1.42-3.18,3.18-3.18M15.69,14.31c1.02,0,1.85-.83,1.85-1.85s-.83-1.85-1.85-1.85-1.85.83-1.85,1.85.83,1.85,1.85,1.85M15.69,9.04c-1.89,0-3.43,1.54-3.43,3.43s1.54,3.43,3.43,3.43,3.43-1.54,3.43-3.43-1.54-3.43-3.43-3.43h0ZM15.69,14.06c-.88,0-1.6-.72-1.6-1.6s.72-1.6,1.6-1.6,1.6.72,1.6,1.6-.72,1.6-1.6,1.6h0Z"/>
      <path class="cls-12" d="M44.32.75c1.76,0,3.18,1.42,3.18,3.18s-1.42,3.18-3.18,3.18-3.18-1.42-3.18-3.18,1.42-3.18,3.18-3.18M44.32,5.77c1.02,0,1.85-.83,1.85-1.85s-.83-1.85-1.85-1.85-1.85.83-1.85,1.85.83,1.85,1.85,1.85M44.32.5c-1.89,0-3.43,1.54-3.43,3.43s1.54,3.43,3.43,3.43,3.43-1.54,3.43-3.43-1.54-3.43-3.43-3.43h0ZM44.32,5.52c-.88,0-1.6-.72-1.6-1.6s.72-1.6,1.6-1.6,1.6.72,1.6,1.6-.72,1.6-1.6,1.6h0Z"/>
      <path class="cls-12" d="M32.9,9.29c1.76,0,3.18,1.42,3.18,3.18s-1.42,3.18-3.18,3.18-3.18-1.42-3.18-3.18,1.42-3.18,3.18-3.18M32.9,14.31c1.02,0,1.85-.83,1.85-1.85s-.83-1.85-1.85-1.85-1.85.83-1.85,1.85.83,1.85,1.85,1.85M32.9,9.04c-1.89,0-3.43,1.54-3.43,3.43s1.54,3.43,3.43,3.43,3.43-1.54,3.43-3.43-1.54-3.43-3.43-3.43h0ZM32.9,14.06c-.88,0-1.6-.72-1.6-1.6s.72-1.6,1.6-1.6,1.6.72,1.6,1.6-.72,1.6-1.6,1.6h0Z"/>
      <g>
        <path class="cls-10" d="M24.38,17.9c-.06,0-.11-.01-.16-.04h0c-.21-.11-4.68-2.62-4.78-5.71-.03-.81.23-1.52.75-2.06.51-.53,1.23-.83,1.99-.83.95,0,1.75.47,2.22,1.25.46-.79,1.27-1.25,2.22-1.25.75,0,1.47.3,1.99.83.52.53.78,1.25.75,2.06-.1,3.09-4.58,5.6-4.77,5.71-.06.03-.12.05-.18.05Z"/>
        <path class="cls-11" d="M22.16,9.64c.88,0,1.75.49,2.11,1.54.02.05.06.08.11.08s.09-.03.11-.08c.35-1.05,1.22-1.54,2.11-1.54,1.2,0,2.41.9,2.36,2.5-.09,2.92-4.56,5.38-4.58,5.39h0s0,0,0,0h0s0,0,0,0c-.02,0-4.48-2.47-4.58-5.39-.05-1.6,1.16-2.5,2.36-2.5M22.16,8.89s0,0,0,0c-.85,0-1.67.34-2.25.94-.59.61-.89,1.42-.86,2.33.11,3.26,4.47,5.75,4.96,6.02.11.06.24.09.36.09.13,0,.27-.04.39-.11.48-.27,4.84-2.8,4.94-6.01.03-.92-.27-1.72-.86-2.33-.58-.6-1.4-.94-2.25-.94s-1.67.36-2.22.99c-.54-.63-1.33-.99-2.22-.99h0Z"/>
      </g>
      <path class="cls-12" d="M22.16,9.64c.88,0,1.75.49,2.11,1.54.02.05.06.08.11.08s.09-.03.11-.08c.35-1.05,1.22-1.54,2.11-1.54,1.2,0,2.41.9,2.36,2.5-.09,2.92-4.56,5.38-4.58,5.39h0s0,0,0,0h0s0,0,0,0c-.02,0-4.48-2.47-4.58-5.39-.05-1.6,1.16-2.5,2.36-2.5M22.16,9.39s0,0,0,0c-.72,0-1.41.29-1.9.79-.49.51-.74,1.19-.72,1.97.1,3.03,4.52,5.5,4.71,5.6l.12.07.12-.07c.47-.27,4.61-2.66,4.7-5.6.03-.78-.22-1.46-.72-1.97-.49-.5-1.18-.79-1.9-.79-.98,0-1.8.53-2.22,1.39-.41-.87-1.24-1.39-2.22-1.39h0Z"/>
    </g>
  </g>
</svg>