<?xml version="1.0" encoding="UTF-8"?>
<svg id="Layer_2" data-name="Layer 2" xmlns="http://www.w3.org/2000/svg" xmlns:xlink="http://www.w3.org/1999/xlink" viewBox="0 0 10.55 9.59">
  <defs>
    <style>
      .cls-1 {
        fill: url(#linear-gradient-2);
      }

      .cls-2 {
        fill: url(#linear-gradient);
      }
    </style>
    <linearGradient id="linear-gradient" x1="5.28" y1="0" x2="5.28" y2="9.59" gradientUnits="userSpaceOnUse">
      <stop offset="0" stop-color="#ffebf8"/>
      <stop offset=".18" stop-color="#ffcadf"/>
      <stop offset=".39" stop-color="#ffaec9"/>
      <stop offset=".59" stop-color="#ff9ab9"/>
      <stop offset=".8" stop-color="#ff8eb0"/>
      <stop offset="1" stop-color="#ff8aad"/>
    </linearGradient>
    <linearGradient id="linear-gradient-2" x1="5.28" y1="9.59" x2="5.28" y2="0" xlink:href="#linear-gradient"/>
  </defs>
  <g id="Layer_1-2" data-name="Layer 1">
    <g>
      <path class="cls-2" d="M10.55,3.07c-.22-4.38-4.85-3.54-5.27-.75C4.86-.48.23-1.32,0,3.07c-.22,4.36,5.27,6.52,5.27,6.52.07-.03,5.49-2.17,5.27-6.52Z"/>
      <path class="cls-1" d="M8.01.25c1.04,0,2.18.74,2.29,2.83.2,3.89-4.29,5.94-5.02,6.24C4.58,9.02.06,6.91.26,3.08.36.99,1.51.25,2.54.25c1.07,0,2.29.79,2.48,2.1l.25,1.65.25-1.65c.2-1.32,1.42-2.1,2.48-2.1M8.01,0C6.76,0,5.49.91,5.28,2.31,5.07.91,3.79,0,2.54,0,1.31,0,.12.89,0,3.07c-.22,4.36,5.27,6.52,5.27,6.52.07-.03,5.49-2.17,5.27-6.52C10.44.89,9.24,0,8.01,0h0Z"/>
    </g>
  </g>
</svg>