<?xml version="1.0" encoding="UTF-8"?>
<svg id="Layer_2" data-name="Layer 2" xmlns="http://www.w3.org/2000/svg" xmlns:xlink="http://www.w3.org/1999/xlink" viewBox="0 0 10.4 9.91">
  <defs>
    <style>
      .cls-1 {
        fill: url(#linear-gradient-2);
      }

      .cls-2 {
        fill: url(#linear-gradient);
      }
    </style>
    <linearGradient id="linear-gradient" x1="5.2" y1=".12" x2="5.2" y2="9.78" gradientUnits="userSpaceOnUse">
      <stop offset="0" stop-color="#ffebf8"/>
      <stop offset=".18" stop-color="#ffcadf"/>
      <stop offset=".39" stop-color="#ffaec9"/>
      <stop offset=".59" stop-color="#ff9ab9"/>
      <stop offset=".8" stop-color="#ff8eb0"/>
      <stop offset="1" stop-color="#ff8aad"/>
    </linearGradient>
    <linearGradient id="linear-gradient-2" x1="5.2" y1="9.78" x2="5.2" y2=".13" xlink:href="#linear-gradient"/>
  </defs>
  <g id="Layer_1-2" data-name="Layer 1">
    <g>
      <path class="cls-2" d="M9.59,2.12h-1.03V.12h-1.4v2h-3.91V.12h-1.4v2H.81c-.38,0-.69.31-.69.69v6.29c0,.38.31.69.69.69h8.78c.38,0,.69-.31.69-.69V2.81c0-.38-.31-.69-.69-.69ZM3.63,6.42h-1.56v-1.56h1.56v1.56ZM8.33,6.42h-1.56v-1.56h1.56v1.56Z"/>
      <path class="cls-1" d="M8.31.38v2h1.28c.24,0,.44.2.44.44v6.29c0,.24-.2.44-.44.44H.81c-.24,0-.44-.2-.44-.44V2.81c0-.24.2-.44.44-.44h1.28V.38h.9v2h4.41V.38h.9M6.52,6.67h2.06v-2.06h-2.06v2.06M1.82,6.67h2.06v-2.06H1.82v2.06M8.56.13h-1.4v2h-3.91V.13h-1.4v2H.81c-.38,0-.69.31-.69.69v6.29c0,.38.31.69.69.69h8.78c.38,0,.69-.31.69-.69V2.81c0-.38-.31-.69-.69-.69h-1.03V.13h0ZM6.77,6.42v-1.56h1.56v1.56h-1.56ZM2.07,6.42v-1.56h1.56v1.56h-1.56Z"/>
    </g>
  </g>
</svg>