<?xml version="1.0" encoding="UTF-8"?>
<svg xmlns="http://www.w3.org/2000/svg" xmlns:xlink="http://www.w3.org/1999/xlink" viewBox="0 0 53.56 35.75">
  <defs>
    <style>
      .cls-1 {
        fill: url(#radial-gradient-8);
      }

      .cls-1, .cls-2, .cls-3, .cls-4, .cls-5, .cls-6, .cls-7, .cls-8, .cls-9 {
        mix-blend-mode: overlay;
      }

      .cls-2 {
        fill: url(#radial-gradient-3);
      }

      .cls-3 {
        fill: url(#radial-gradient-2);
      }

      .cls-4 {
        fill: url(#radial-gradient-7);
      }

      .cls-5 {
        fill: url(#radial-gradient-5);
      }

      .cls-6 {
        fill: url(#radial-gradient-6);
      }

      .cls-7 {
        fill: url(#radial-gradient-4);
      }

      .cls-10 {
        fill: #bd4f7d;
      }

      .cls-11 {
        fill: #ad918a;
      }

      .cls-12 {
        fill: #f2e4d8;
      }

      .cls-13 {
        isolation: isolate;
      }

      .cls-8 {
        fill: url(#radial-gradient);
      }

      .cls-9 {
        opacity: .29;
      }
    </style>
    <radialGradient id="radial-gradient" cx="41.48" cy="-5.07" fx="41.48" fy="-5.07" r="31.07" gradientUnits="userSpaceOnUse">
      <stop offset="0" stop-color="#ffebf8"/>
      <stop offset=".7" stop-color="#ffebf8" stop-opacity="0"/>
    </radialGradient>
    <radialGradient id="radial-gradient-2" cx="27.69" cy="6.97" fx="27.69" fy="6.97" r="26.46" xlink:href="#radial-gradient"/>
    <radialGradient id="radial-gradient-3" cx="33.05" cy="5.82" fx="33.05" fy="5.82" r="23.72" xlink:href="#radial-gradient"/>
    <radialGradient id="radial-gradient-4" cx="33.05" cy="5.82" fx="33.05" fy="5.82" r="23.72" xlink:href="#radial-gradient"/>
    <radialGradient id="radial-gradient-5" cx="432.97" cy="-5.07" fx="432.97" fy="-5.07" r="31.07" gradientTransform="translate(445.04) rotate(-180) scale(1 -1)" xlink:href="#radial-gradient"/>
    <radialGradient id="radial-gradient-6" cx="419.17" cy="6.97" fx="419.17" fy="6.97" r="26.46" gradientTransform="translate(445.04) rotate(-180) scale(1 -1)" xlink:href="#radial-gradient"/>
    <radialGradient id="radial-gradient-7" cx="424.53" cy="5.82" fx="424.53" fy="5.82" r="23.72" gradientTransform="translate(445.04) rotate(-180) scale(1 -1)" xlink:href="#radial-gradient"/>
    <radialGradient id="radial-gradient-8" cx="424.53" cy="5.82" fx="424.53" fy="5.82" r="23.72" gradientTransform="translate(445.04) rotate(-180) scale(1 -1)" xlink:href="#radial-gradient"/>
  </defs>
  <g class="cls-13">
    <g id="Layer_2" data-name="Layer 2">
      <g id="Layer_1-2" data-name="Layer 1">
        <g>
          <g>
            <g>
              <path class="cls-11" d="M34.59,33.76c-.15-.02-.28-.1-.37-.22-.28-.42-6.77-10.46-5.36-21.3.75-5.75,2.63-9.57,5.42-11.05.87-.46,1.83-.7,2.84-.7.46,0,.95.05,1.43.15,1.31.26,2.71.88,4.16,1.84,3.6,2.38,7.98,7.84,9.63,14.66.27,1.07.47,2.22.59,3.4.5,5.04-.61,9.9-3.3,14.46-.09.15-.25.25-.43.25-.02,0-14.62-1.48-14.62-1.48Z"/>
              <path class="cls-10" d="M37.13,1c.43,0,.88.05,1.33.14,1.25.25,2.58.84,3.98,1.77,3.63,2.4,7.82,7.74,9.42,14.36.27,1.08.46,2.19.58,3.33.44,4.45-.37,9.3-3.23,14.15h-.1s-5.97-.62-5.97-.62l-3.97-.4-3.85-.39-.68-.07s-6.68-10.18-5.28-20.96c.76-5.79,2.61-9.32,5.16-10.67.8-.42,1.67-.64,2.61-.64M37.13,0h0c-1.1,0-2.13.25-3.08.75-2.94,1.56-4.91,5.51-5.68,11.42-1.43,11.02,5.15,21.21,5.44,21.64.17.25.43.42.73.45l.68.07,3.85.39,3.97.4,5.97.61h.1s.07.02.1.02c.35,0,.68-.19.86-.49,2.74-4.65,3.87-9.61,3.36-14.76-.13-1.21-.33-2.38-.6-3.47-1.79-7.42-6.42-12.69-9.84-14.95-1.5-1-2.96-1.64-4.34-1.92-.52-.1-1.03-.16-1.53-.16h0Z"/>
            </g>
            <path class="cls-12" d="M51.66,18.11c1.12,9.52-5.11,16.78-5.11,16.78l-3.41-.75-2.85-.34c.96-1.9,2.08-4.79-1.75-11.52-6.03-10.6-5.24-19.4-.4-21.03.1-.03.22-.07.32-.1,1.25.24,2.58.84,3.98,1.76,3.62,2.4,8.38,8.09,9.22,15.2Z"/>
            <path class="cls-9" d="M49.21,34.75l-6.07-.62-3.97-.4-4.53-.46s-6.68-10.18-5.28-20.96c.76-5.79,2.61-9.32,5.16-10.67-3.96,3.2-1.97,20.56,9.15,22.31,4.72.74,6.57-1.46,8.77-3.35.44,4.45-.37,9.3-3.23,14.15Z"/>
            <path class="cls-8" d="M49.58,31.44s4.72-8.3-.38-18.6c-5.11-10.3-11.4-12.13-15.19-7.49s-3.49,18.04,1.06,26.21"/>
            <path class="cls-3" d="M49.21,34.75h-.1c1.19-2.33,3.2-6.6,3.12-11.82-.16-10.92-7.99-18.98-12.22-20.73-4.24-1.74-9.52,1.45-10.03,11.35-.46,8.98,4.45,18.18,5.34,19.79l-.68-.07s-6.68-10.18-5.28-20.96c.76-5.79,2.61-9.32,5.16-10.67,1.17-.62,2.5-.79,3.94-.5,1.25.25,2.58.84,3.98,1.77,3.63,2.4,7.82,7.74,9.42,14.36.27,1.08.46,2.19.58,3.33.44,4.45-.37,9.3-3.23,14.15Z"/>
            <ellipse class="cls-2" cx="30.86" cy="14.35" rx="1.51" ry="2.82"/>
            <ellipse class="cls-7" cx="33.33" cy="17.74" rx=".74" ry="1.16"/>
          </g>
          <g>
            <g>
              <path class="cls-11" d="M4.34,35.25c-.18,0-.34-.09-.43-.25C1.23,30.45.12,25.58.62,20.55c.12-1.18.32-2.33.59-3.4C2.86,10.33,7.23,4.87,10.84,2.49c1.44-.96,2.84-1.58,4.16-1.84.48-.1.97-.15,1.43-.15,1.02,0,1.97.23,2.84.7,2.79,1.48,4.67,5.3,5.42,11.05,1.41,10.84-5.08,20.88-5.36,21.3-.08.13-.22.21-.37.22,0,0-14.6,1.48-14.62,1.48Z"/>
              <path class="cls-10" d="M16.42,1c.93,0,1.81.21,2.61.64,2.55,1.35,4.4,4.88,5.16,10.67,1.4,10.78-5.28,20.96-5.28,20.96l-.68.07-3.85.39-3.97.4-5.97.61h-.1c-2.86-4.84-3.67-9.69-3.23-14.14.12-1.14.31-2.25.58-3.33C3.29,10.65,7.48,5.31,11.11,2.91c1.4-.93,2.73-1.52,3.98-1.77.46-.09.9-.14,1.33-.14M16.42,0c-.5,0-1.01.05-1.53.16-1.38.28-2.84.92-4.34,1.92C7.14,4.33,2.52,9.61.72,17.03c-.27,1.09-.48,2.26-.6,3.46-.51,5.15.62,10.11,3.36,14.76.18.31.51.49.86.49.03,0,.07,0,.1,0h.1s5.97-.62,5.97-.62l3.97-.4,3.85-.39.68-.07c.3-.03.57-.19.73-.45.28-.43,6.87-10.62,5.44-21.64-.78-5.92-2.74-9.87-5.68-11.42-.94-.5-1.98-.75-3.08-.75h0Z"/>
            </g>
            <path class="cls-12" d="M1.89,18.11c-1.12,9.52,5.11,16.78,5.11,16.78l3.41-.75,2.85-.34c-.96-1.9-2.08-4.79,1.75-11.52,6.03-10.6,5.24-19.4.4-21.03-.1-.03-.22-.07-.32-.1-1.25.24-2.58.84-3.98,1.76C7.49,5.31,2.73,11,1.89,18.11Z"/>
            <path class="cls-9" d="M4.34,34.75l6.07-.62,3.97-.4,4.53-.46s6.68-10.18,5.28-20.96c-.76-5.79-2.61-9.32-5.16-10.67,3.96,3.2,1.97,20.56-9.15,22.31-4.72.74-6.57-1.46-8.77-3.35-.44,4.45.37,9.3,3.23,14.15Z"/>
            <path class="cls-5" d="M3.97,31.44s-4.72-8.3.38-18.6C9.46,2.54,15.76.71,19.55,5.35c3.79,4.64,3.49,18.04-1.06,26.21"/>
            <path class="cls-6" d="M4.34,34.75h.1c-1.19-2.33-3.2-6.6-3.12-11.82C1.48,12.01,9.31,3.95,13.54,2.2c4.24-1.74,9.52,1.45,10.03,11.35.46,8.98-4.45,18.18-5.34,19.79l.68-.07s6.68-10.18,5.28-20.96c-.76-5.79-2.61-9.32-5.16-10.67-1.17-.62-2.5-.79-3.94-.5-1.25.25-2.58.84-3.98,1.77-3.63,2.4-7.82,7.74-9.42,14.36-.27,1.08-.46,2.19-.58,3.33-.44,4.45.37,9.3,3.23,14.15Z"/>
            <ellipse class="cls-4" cx="22.7" cy="14.35" rx="1.51" ry="2.82"/>
            <ellipse class="cls-1" cx="20.23" cy="17.74" rx=".74" ry="1.16"/>
          </g>
        </g>
      </g>
    </g>
  </g>
</svg>